<svg version="1.1" viewBox="0.0 0.0 1183.8792650918635 142.58005249343833" fill="none" stroke="none" stroke-linecap="square" stroke-miterlimit="10" xmlns:xlink="http://www.w3.org/1999/xlink" xmlns="http://www.w3.org/2000/svg"><clipPath id="p.0"><path d="m0 0l1183.8793 0l0 142.58005l-1183.8793 0l0 -142.58005z" clip-rule="nonzero"/></clipPath><g clip-path="url(#p.0)"><path fill="#000000" fill-opacity="0.0" d="m0 0l1183.8793 0l0 142.58005l-1183.8793 0z" fill-rule="evenodd"/><path fill="#000000" fill-opacity="0.0" d="m25.18504 19.700787l76.06299 0l0 100.34645l-76.06299 0z" fill-rule="evenodd"/><path stroke="#000000" stroke-width="3.0" stroke-linejoin="round" stroke-linecap="butt" d="m25.18504 19.700787l76.06299 0l0 100.34645l-76.06299 0z" fill-rule="evenodd"/><path fill="#000000" fill-opacity="0.0" d="m100.75197 19.700787l76.06299 0l0 100.34645l-76.06299 0z" fill-rule="evenodd"/><path stroke="#000000" stroke-width="3.0" stroke-linejoin="round" stroke-linecap="butt" d="m100.75197 19.700787l76.06299 0l0 100.34645l-76.06299 0z" fill-rule="evenodd"/><path fill="#000000" fill-opacity="0.0" d="m176.3189 19.700787l76.063 0l0 100.34645l-76.063 0z" fill-rule="evenodd"/><path stroke="#000000" stroke-width="3.0" stroke-linejoin="round" stroke-linecap="butt" d="m176.3189 19.700787l76.063 0l0 100.34645l-76.063 0z" fill-rule="evenodd"/><path fill="#000000" fill-opacity="0.0" d="m251.88583 19.700787l76.06299 0l0 100.34645l-76.06299 0z" fill-rule="evenodd"/><path stroke="#000000" stroke-width="3.0" stroke-linejoin="round" stroke-linecap="butt" d="m251.88583 19.700787l76.06299 0l0 100.34645l-76.06299 0z" fill-rule="evenodd"/><path fill="#000000" fill-opacity="0.0" d="m327.45276 19.700787l76.06299 0l0 100.34645l-76.06299 0z" fill-rule="evenodd"/><path stroke="#000000" stroke-width="3.0" stroke-linejoin="round" stroke-linecap="butt" d="m327.45276 19.700787l76.06299 0l0 100.34645l-76.06299 0z" fill-rule="evenodd"/><path fill="#000000" fill-opacity="0.0" d="m403.01968 19.700787l76.06299 0l0 100.34645l-76.06299 0z" fill-rule="evenodd"/><path stroke="#000000" stroke-width="3.0" stroke-linejoin="round" stroke-linecap="butt" d="m403.01968 19.700787l76.06299 0l0 100.34645l-76.06299 0z" fill-rule="evenodd"/><path fill="#000000" fill-opacity="0.0" d="m478.5866 19.700787l76.06299 0l0 100.34645l-76.06299 0z" fill-rule="evenodd"/><path stroke="#000000" stroke-width="3.0" stroke-linejoin="round" stroke-linecap="butt" d="m478.5866 19.700787l76.06299 0l0 100.34645l-76.06299 0z" fill-rule="evenodd"/><path fill="#000000" fill-opacity="0.0" d="m554.15356 19.700787l76.06299 0l0 100.34645l-76.06299 0z" fill-rule="evenodd"/><path stroke="#000000" stroke-width="3.0" stroke-linejoin="round" stroke-linecap="butt" d="m554.15356 19.700787l76.06299 0l0 100.34645l-76.06299 0z" fill-rule="evenodd"/><path fill="#000000" fill-opacity="0.0" d="m629.72046 19.700787l76.06299 0l0 100.34645l-76.06299 0z" fill-rule="evenodd"/><path stroke="#000000" stroke-width="3.0" stroke-linejoin="round" stroke-linecap="butt" d="m629.72046 19.700787l76.06299 0l0 100.34645l-76.06299 0z" fill-rule="evenodd"/><path fill="#000000" fill-opacity="0.0" d="m705.2874 19.700787l76.06299 0l0 100.34645l-76.06299 0z" fill-rule="evenodd"/><path stroke="#000000" stroke-width="3.0" stroke-linejoin="round" stroke-linecap="butt" d="m705.2874 19.700787l76.06299 0l0 100.34645l-76.06299 0z" fill-rule="evenodd"/><path fill="#000000" fill-opacity="0.0" d="m780.8543 19.700787l76.06299 0l0 100.34645l-76.06299 0z" fill-rule="evenodd"/><path stroke="#000000" stroke-width="3.0" stroke-linejoin="round" stroke-linecap="butt" d="m780.8543 19.700787l76.06299 0l0 100.34645l-76.06299 0z" fill-rule="evenodd"/><path fill="#000000" fill-opacity="0.0" d="m856.42126 19.700787l76.06299 0l0 100.34645l-76.06299 0z" fill-rule="evenodd"/><path stroke="#000000" stroke-width="3.0" stroke-linejoin="round" stroke-linecap="butt" d="m856.42126 19.700787l76.06299 0l0 100.34645l-76.06299 0z" fill-rule="evenodd"/><path fill="#000000" fill-opacity="0.0" d="m931.98816 19.700787l76.06305 0l0 100.34645l-76.06305 0z" fill-rule="evenodd"/><path stroke="#000000" stroke-width="3.0" stroke-linejoin="round" stroke-linecap="butt" d="m931.98816 19.700787l76.06305 0l0 100.34645l-76.06305 0z" fill-rule="evenodd"/><path fill="#000000" fill-opacity="0.0" d="m1007.5551 19.700787l76.06305 0l0 100.34645l-76.06305 0z" fill-rule="evenodd"/><path stroke="#000000" stroke-width="3.0" stroke-linejoin="round" stroke-linecap="butt" d="m1007.5551 19.700787l76.06305 0l0 100.34645l-76.06305 0z" fill-rule="evenodd"/><path fill="#000000" fill-opacity="0.0" d="m1083.1221 19.700787l76.06299 0l0 100.34645l-76.06299 0z" fill-rule="evenodd"/><path stroke="#000000" stroke-width="3.0" stroke-linejoin="round" stroke-linecap="butt" d="m1083.1221 19.700787l76.06299 0l0 100.34645l-76.06299 0z" fill-rule="evenodd"/><path fill="#93c47d" d="m93.198586 72.27161l0 0c0 -16.612026 -13.325699 -30.07874 -29.763783 -30.07874l0 0c-7.8938446 0 -15.464378 3.1690025 -21.04617 8.80986c-5.581791 5.6408577 -8.717609 13.2915 -8.717609 21.268879l0 0c0 16.61203 13.325699 30.078743 29.763779 30.078743l0 0c16.438084 0 29.763783 -13.466713 29.763783 -30.078743z" fill-rule="evenodd"/><path stroke="#000000" stroke-width="8.0" stroke-linejoin="round" stroke-linecap="butt" d="m93.198586 72.27161l0 0c0 -16.612026 -13.325699 -30.07874 -29.763783 -30.07874l0 0c-7.8938446 0 -15.464378 3.1690025 -21.04617 8.80986c-5.581791 5.6408577 -8.717609 13.2915 -8.717609 21.268879l0 0c0 16.61203 13.325699 30.078743 29.763779 30.078743l0 0c16.438084 0 29.763783 -13.466713 29.763783 -30.078743z" fill-rule="evenodd"/><path fill="#000000" d="m63.357655 65.09661q2.0781212 0 3.2499962 1.484375q1.40625 1.75 1.40625 5.828125q0 4.0625 -1.40625 5.84375q-1.171875 1.46875 -3.2499962 1.46875q-2.078125 0 -3.359375 -1.609375q-1.28125 -1.609375 -1.28125 -5.734375q0 -4.046875 1.40625 -5.8125q1.15625 -1.46875 3.234375 -1.46875zm0 2.28125q-0.5 0 -0.890625 0.3125q-0.390625 0.3125 -0.59375 1.140625q-0.28125 1.0625 -0.28125 3.578125q0 2.515625 0.25 3.46875q0.25 0.9375 0.625 1.25q0.390625 0.3125 0.890625 0.3125q0.5 0 0.8906212 -0.3125q0.390625 -0.328125 0.609375 -1.140625q0.28125 -1.0625 0.28125 -3.578125q0 -2.515625 -0.25 -3.453125q-0.25 -0.953125 -0.640625 -1.265625q-0.3906212 -0.3125 -0.8906212 -0.3125z" fill-rule="nonzero"/><path fill="#b4a7d6" d="m1151.135 72.270775l0 0c0 -16.61203 -13.325684 -30.078743 -29.763794 -30.078743l0 0c-7.893799 0 -15.464355 3.1690025 -21.046143 8.80986c-5.581787 5.6408577 -8.717651 13.291504 -8.717651 21.268883l0 0c0 16.61203 13.325806 30.078735 29.763794 30.078735l0 0c16.43811 0 29.763794 -13.466705 29.763794 -30.078735z" fill-rule="evenodd"/><path stroke="#000000" stroke-width="8.0" stroke-linejoin="round" stroke-linecap="butt" d="m1151.135 72.270775l0 0c0 -16.61203 -13.325684 -30.078743 -29.763794 -30.078743l0 0c-7.893799 0 -15.464355 3.1690025 -21.046143 8.80986c-5.581787 5.6408577 -8.717651 13.291504 -8.717651 21.268883l0 0c0 16.61203 13.325806 30.078735 29.763794 30.078735l0 0c16.43811 0 29.763794 -13.466705 29.763794 -30.078735z" fill-rule="evenodd"/><path fill="#000000" d="m1118.1232 79.47077l-2.75 0l0 -10.34375q-1.5 1.40625 -3.546875 2.078125l0 -2.484375q1.078125 -0.359375 2.328125 -1.328125q1.265625 -0.984375 1.734375 -2.296875l2.234375 0l0 14.375zm9.482422 0l0 -2.875l-5.859375 0l0 -2.40625l6.203125 -9.09375l2.3125 0l0 9.078125l1.78125 0l0 2.421875l-1.78125 0l0 2.875l-2.65625 0zm0 -5.296875l0 -4.890625l-3.296875 4.890625l3.296875 0z" fill-rule="nonzero"/><path fill="#b4a7d6" d="m1075.569 72.270775l0 0c0 -16.61203 -13.325684 -30.078743 -29.763794 -30.078743l0 0c-7.893921 0 -15.464355 3.1690025 -21.046143 8.80986c-5.581848 5.6408577 -8.717651 13.291504 -8.717651 21.268883l0 0c0 16.61203 13.325684 30.078735 29.763794 30.078735l0 0c16.43811 0 29.763794 -13.466705 29.763794 -30.078735z" fill-rule="evenodd"/><path stroke="#000000" stroke-width="8.0" stroke-linejoin="round" stroke-linecap="butt" d="m1075.569 72.270775l0 0c0 -16.61203 -13.325684 -30.078743 -29.763794 -30.078743l0 0c-7.893921 0 -15.464355 3.1690025 -21.046143 8.80986c-5.581848 5.6408577 -8.717651 13.291504 -8.717651 21.268883l0 0c0 16.61203 13.325684 30.078735 29.763794 30.078735l0 0c16.43811 0 29.763794 -13.466705 29.763794 -30.078735z" fill-rule="evenodd"/><path fill="#000000" d="m1042.5571 79.47077l-2.75 0l0 -10.34375q-1.5 1.40625 -3.546875 2.078125l0 -2.484375q1.078125 -0.359375 2.328125 -1.328125q1.265625 -0.984375 1.734375 -2.296875l2.234375 0l0 14.375zm3.9980469 -3.796875l2.65625 -0.328125q0.125 1.015625 0.6875 1.5625q0.5625 0.53125 1.34375 0.53125q0.859375 0 1.4375 -0.640625q0.578125 -0.65625 0.578125 -1.75q0 -1.03125 -0.5625 -1.625q-0.546875 -0.609375 -1.359375 -0.609375q-0.515625 0 -1.25 0.203125l0.296875 -2.234375q1.109375 0.03125 1.6875 -0.484375q0.59375 -0.515625 0.59375 -1.359375q0 -0.734375 -0.4375 -1.15625q-0.421875 -0.4375 -1.125 -0.4375q-0.703125 0 -1.203125 0.5q-0.5 0.484375 -0.609375 1.421875l-2.53125 -0.4375q0.265625 -1.296875 0.796875 -2.0625q0.53125 -0.78125 1.484375 -1.21875q0.953125 -0.453125 2.140625 -0.453125q2.015625 0 3.234375 1.28125q1.015625 1.0625 1.015625 2.390625q0 1.890625 -2.0625 3.0q1.234375 0.265625 1.96875 1.1875q0.734375 0.921875 0.734375 2.21875q0 1.890625 -1.375 3.21875q-1.375 1.328125 -3.4375 1.328125q-1.9375 0 -3.21875 -1.125q-1.28125 -1.125 -1.484375 -2.921875z" fill-rule="nonzero"/><path fill="#8e7cc3" d="m1000.0009 72.270775l0 0c0 -16.61203 -13.325684 -30.078743 -29.763794 -30.078743l0 0c-7.89386 0 -15.464355 3.1690025 -21.046143 8.80986c-5.581787 5.6408577 -8.717651 13.291504 -8.717651 21.268883l0 0c0 16.61203 13.325745 30.078735 29.763794 30.078735l0 0c16.43811 0 29.763794 -13.466705 29.763794 -30.078735z" fill-rule="evenodd"/><path stroke="#000000" stroke-width="8.0" stroke-linejoin="round" stroke-linecap="butt" d="m1000.0009 72.270775l0 0c0 -16.61203 -13.325684 -30.078743 -29.763794 -30.078743l0 0c-7.89386 0 -15.464355 3.1690025 -21.046143 8.80986c-5.581787 5.6408577 -8.717651 13.291504 -8.717651 21.268883l0 0c0 16.61203 13.325745 30.078735 29.763794 30.078735l0 0c16.43811 0 29.763794 -13.466705 29.763794 -30.078735z" fill-rule="evenodd"/><path fill="#000000" d="m966.9891 79.47077l-2.75 0l0 -10.34375q-1.5 1.40625 -3.546875 2.078125l0 -2.484375q1.078125 -0.359375 2.328125 -1.328125q1.265625 -0.984375 1.734375 -2.296875l2.234375 0l0 14.375zm13.373047 -2.546875l0 2.546875l-9.625 0q0.15625 -1.453125 0.9375 -2.734375q0.78125 -1.296875 3.078125 -3.4375q1.859375 -1.734375 2.28125 -2.34375q0.5625 -0.84375 0.5625 -1.6875q0 -0.90625 -0.5 -1.390625q-0.484375 -0.5 -1.34375 -0.5q-0.859375 0 -1.375 0.515625q-0.5 0.515625 -0.578125 1.71875l-2.734375 -0.28125q0.234375 -2.265625 1.515625 -3.25q1.296875 -0.984375 3.234375 -0.984375q2.125 0 3.328125 1.140625q1.21875 1.140625 1.21875 2.84375q0 0.96875 -0.359375 1.84375q-0.34375 0.875 -1.09375 1.828125q-0.5 0.640625 -1.796875 1.828125q-1.296875 1.1875 -1.640625 1.578125q-0.34375 0.390625 -0.5625 0.765625l5.453125 0z" fill-rule="nonzero"/><path fill="#8e7cc3" d="m924.4348 72.270775l0 0c0 -16.61203 -13.325684 -30.078743 -29.763794 -30.078743l0 0c-7.89386 0 -15.464355 3.1690025 -21.046143 8.80986c-5.581787 5.6408577 -8.717651 13.291504 -8.717651 21.268883l0 0c0 16.61203 13.325745 30.078735 29.763794 30.078735l0 0c16.43811 0 29.763794 -13.466705 29.763794 -30.078735z" fill-rule="evenodd"/><path stroke="#000000" stroke-width="8.0" stroke-linejoin="round" stroke-linecap="butt" d="m924.4348 72.270775l0 0c0 -16.61203 -13.325684 -30.078743 -29.763794 -30.078743l0 0c-7.89386 0 -15.464355 3.1690025 -21.046143 8.80986c-5.581787 5.6408577 -8.717651 13.291504 -8.717651 21.268883l0 0c0 16.61203 13.325745 30.078735 29.763794 30.078735l0 0c16.43811 0 29.763794 -13.466705 29.763794 -30.078735z" fill-rule="evenodd"/><path fill="#000000" d="m891.97473 79.47077l-2.75 0l0 -10.34375q-1.5 1.40625 -3.546875 2.078125l0 -2.484375q1.078125 -0.359375 2.328125 -1.328125q1.265625 -0.984375 1.734375 -2.296875l2.234375 0l0 14.375zm10.019531 0l-2.75 0l0 -10.34375q-1.5 1.40625 -3.546875 2.078125l0 -2.484375q1.078125 -0.359375 2.328125 -1.328125q1.265625 -0.984375 1.734375 -2.296875l2.234375 0l0 14.375z" fill-rule="nonzero"/><path fill="#674ea7" d="m848.8676 72.270775l0 0c0 -16.61203 -13.325745 -30.078743 -29.763794 -30.078743l0 0c-7.89386 0 -15.464355 3.1690025 -21.046143 8.80986c-5.581848 5.6408577 -8.717651 13.291504 -8.717651 21.268883l0 0c0 16.61203 13.325684 30.078735 29.763794 30.078735l0 0c16.43805 0 29.763794 -13.466705 29.763794 -30.078735z" fill-rule="evenodd"/><path stroke="#000000" stroke-width="8.0" stroke-linejoin="round" stroke-linecap="butt" d="m848.8676 72.270775l0 0c0 -16.61203 -13.325745 -30.078743 -29.763794 -30.078743l0 0c-7.89386 0 -15.464355 3.1690025 -21.046143 8.80986c-5.581848 5.6408577 -8.717651 13.291504 -8.717651 21.268883l0 0c0 16.61203 13.325684 30.078735 29.763794 30.078735l0 0c16.43805 0 29.763794 -13.466705 29.763794 -30.078735z" fill-rule="evenodd"/><path fill="#000000" d="m815.8558 79.47077l-2.75 0l0 -10.34375q-1.5 1.40625 -3.546875 2.078125l0 -2.484375q1.078125 -0.359375 2.328125 -1.328125q1.265625 -0.984375 1.734375 -2.296875l2.234375 0l0 14.375zm8.732422 -14.375q2.078125 0 3.25 1.484375q1.40625 1.75 1.40625 5.828125q0 4.0625 -1.40625 5.84375q-1.171875 1.46875 -3.25 1.46875q-2.078125 0 -3.359375 -1.609375q-1.28125 -1.609375 -1.28125 -5.734375q0 -4.046875 1.40625 -5.8125q1.15625 -1.46875 3.234375 -1.46875zm0 2.28125q-0.5 0 -0.890625 0.3125q-0.390625 0.3125 -0.59375 1.140625q-0.28125 1.0625 -0.28125 3.578125q0 2.515625 0.25 3.46875q0.25 0.9375 0.625 1.25q0.390625 0.3125 0.890625 0.3125q0.5 0 0.890625 -0.3125q0.390625 -0.328125 0.609375 -1.140625q0.28125 -1.0625 0.28125 -3.578125q0 -2.515625 -0.25 -3.453125q-0.25 -0.953125 -0.640625 -1.265625q-0.390625 -0.3125 -0.890625 -0.3125z" fill-rule="nonzero"/><path fill="#674ea7" d="m773.3015 72.270775l0 0c0 -16.61203 -13.325745 -30.078743 -29.763794 -30.078743l0 0c-7.89386 0 -15.464355 3.1690025 -21.046204 8.80986c-5.581787 5.6408577 -8.71759 13.291504 -8.71759 21.268883l0 0c0 16.61203 13.325684 30.078735 29.763794 30.078735l0 0c16.43805 0 29.763794 -13.466705 29.763794 -30.078735z" fill-rule="evenodd"/><path stroke="#000000" stroke-width="8.0" stroke-linejoin="round" stroke-linecap="butt" d="m773.3015 72.270775l0 0c0 -16.61203 -13.325745 -30.078743 -29.763794 -30.078743l0 0c-7.89386 0 -15.464355 3.1690025 -21.046204 8.80986c-5.581787 5.6408577 -8.71759 13.291504 -8.71759 21.268883l0 0c0 16.61203 13.325684 30.078735 29.763794 30.078735l0 0c16.43805 0 29.763794 -13.466705 29.763794 -30.078735z" fill-rule="evenodd"/><path fill="#000000" d="m738.88245 76.15827l2.65625 -0.296875q0.09375 0.8125 0.5 1.203125q0.421875 0.390625 1.09375 0.390625q0.84375 0 1.4375 -0.78125q0.609375 -0.78125 0.765625 -3.234375q-1.03125 1.203125 -2.578125 1.203125q-1.6875 0 -2.921875 -1.296875q-1.21875 -1.3125 -1.21875 -3.40625q0 -2.171875 1.28125 -3.5q1.296875 -1.34375 3.296875 -1.34375q2.1875 0 3.578125 1.6875q1.40625 1.6875 1.40625 5.53125q0 3.9375 -1.46875 5.671875q-1.453125 1.734375 -3.78125 1.734375q-1.6875 0 -2.71875 -0.890625q-1.03125 -0.890625 -1.328125 -2.671875zm6.21875 -6.0q0 -1.328125 -0.609375 -2.046875q-0.609375 -0.734375 -1.421875 -0.734375q-0.75 0 -1.265625 0.59375q-0.5 0.59375 -0.5 1.96875q0 1.390625 0.546875 2.046875q0.546875 0.640625 1.375 0.640625q0.78125 0 1.328125 -0.625q0.546875 -0.625 0.546875 -1.84375z" fill-rule="nonzero"/><path fill="#351c75" d="m697.73346 72.270775l0 0c0 -16.61203 -13.325684 -30.078743 -29.763794 -30.078743l0 0c-7.893799 0 -15.464355 3.1690025 -21.046143 8.80986c-5.581787 5.6408577 -8.71759 13.291504 -8.71759 21.268883l0 0c0 16.61203 13.325684 30.078735 29.763733 30.078735l0 0c16.43811 0 29.763794 -13.466705 29.763794 -30.078735z" fill-rule="evenodd"/><path stroke="#000000" stroke-width="8.0" stroke-linejoin="round" stroke-linecap="butt" d="m697.73346 72.270775l0 0c0 -16.61203 -13.325684 -30.078743 -29.763794 -30.078743l0 0c-7.893799 0 -15.464355 3.1690025 -21.046143 8.80986c-5.581787 5.6408577 -8.71759 13.291504 -8.71759 21.268883l0 0c0 16.61203 13.325684 30.078735 29.763733 30.078735l0 0c16.43811 0 29.763794 -13.466705 29.763794 -30.078735z" fill-rule="evenodd"/><path fill="#000000" d="m665.61127 71.75202q-1.0625 -0.453125 -1.546875 -1.234375q-0.484375 -0.796875 -0.484375 -1.734375q0 -1.59375 1.109375 -2.640625q1.125 -1.046875 3.1875 -1.046875q2.046875 0 3.171875 1.046875q1.125 1.046875 1.125 2.640625q0 1.0 -0.515625 1.78125q-0.515625 0.765625 -1.453125 1.1875q1.1875 0.46875 1.796875 1.390625q0.625 0.921875 0.625 2.125q0 1.96875 -1.265625 3.21875q-1.25 1.234375 -3.359375 1.234375q-1.953125 0 -3.25 -1.015625q-1.53125 -1.21875 -1.53125 -3.328125q0 -1.15625 0.578125 -2.125q0.578125 -0.984375 1.8125 -1.5zm0.5625 -2.765625q0 0.8125 0.46875 1.28125q0.46875 0.453125 1.234375 0.453125q0.78125 0 1.25 -0.453125q0.46875 -0.46875 0.46875 -1.296875q0 -0.765625 -0.46875 -1.234375q-0.453125 -0.46875 -1.21875 -0.46875q-0.796875 0 -1.265625 0.46875q-0.46875 0.46875 -0.46875 1.25zm-0.25 6.125q0 1.140625 0.578125 1.78125q0.578125 0.625 1.453125 0.625q0.84375 0 1.40625 -0.609375q0.5625 -0.609375 0.5625 -1.765625q0 -1.0 -0.578125 -1.609375q-0.5625 -0.609375 -1.421875 -0.609375q-1.015625 0 -1.515625 0.6875q-0.484375 0.6875 -0.484375 1.5z" fill-rule="nonzero"/><path fill="#351c75" d="m622.16736 72.270775l0 0c0 -16.61203 -13.325684 -30.078743 -29.763794 -30.078743l0 0c-7.893799 0 -15.464355 3.1690025 -21.046143 8.80986c-5.581787 5.6408577 -8.71759 13.291504 -8.71759 21.268883l0 0c0 16.61203 13.325684 30.078735 29.763733 30.078735l0 0c16.43811 0 29.763794 -13.466705 29.763794 -30.078735z" fill-rule="evenodd"/><path stroke="#000000" stroke-width="8.0" stroke-linejoin="round" stroke-linecap="butt" d="m622.16736 72.270775l0 0c0 -16.61203 -13.325684 -30.078743 -29.763794 -30.078743l0 0c-7.893799 0 -15.464355 3.1690025 -21.046143 8.80986c-5.581787 5.6408577 -8.71759 13.291504 -8.71759 21.268883l0 0c0 16.61203 13.325684 30.078735 29.763733 30.078735l0 0c16.43811 0 29.763794 -13.466705 29.763794 -30.078735z" fill-rule="evenodd"/><path fill="#000000" d="m587.6858 67.89265l0 -2.546875l9.390625 0l0 2.0q-1.15625 1.140625 -2.359375 3.28125q-1.203125 2.140625 -1.84375 4.546875q-0.625 2.40625 -0.609375 4.296875l-2.640625 0q0.0625 -2.96875 1.21875 -6.046875q1.15625 -3.09375 3.09375 -5.53125l-6.25 0z" fill-rule="nonzero"/><path fill="#c9daf8" d="m546.601 72.27225l0 0c0 -16.612026 -13.325745 -30.07874 -29.763794 -30.07874l0 0c-7.89386 0 -15.464386 3.1690025 -21.046173 8.80986c-5.5818176 5.6408577 -8.717621 13.2915 -8.717621 21.268879l0 0c0 16.61203 13.325684 30.078743 29.763794 30.078743l0 0c16.43805 0 29.763794 -13.466713 29.763794 -30.078743z" fill-rule="evenodd"/><path stroke="#000000" stroke-width="8.0" stroke-linejoin="round" stroke-linecap="butt" d="m546.601 72.27225l0 0c0 -16.612026 -13.325745 -30.07874 -29.763794 -30.07874l0 0c-7.89386 0 -15.464386 3.1690025 -21.046173 8.80986c-5.5818176 5.6408577 -8.717621 13.2915 -8.717621 21.268879l0 0c0 16.61203 13.325684 30.078743 29.763794 30.078743l0 0c16.43805 0 29.763794 -13.466713 29.763794 -30.078743z" fill-rule="evenodd"/><path fill="#000000" d="m521.4163 68.65975l-2.65625 0.296875q-0.09375 -0.828125 -0.5 -1.21875q-0.40625 -0.390625 -1.0625 -0.390625q-0.875 0 -1.484375 0.78125q-0.59375 0.78125 -0.75 3.25q1.03125 -1.203125 2.546875 -1.203125q1.71875 0 2.9375 1.3125q1.234375 1.296875 1.234375 3.375q0 2.203125 -1.296875 3.53125q-1.28125 1.328125 -3.296875 1.328125q-2.171875 0 -3.578125 -1.6875q-1.390625 -1.6875 -1.390625 -5.53125q0 -3.9375 1.453125 -5.671875q1.46875 -1.734375 3.78125 -1.734375q1.640625 0 2.703125 0.921875q1.078125 0.90625 1.359375 2.640625zm-6.21875 5.984375q0 1.34375 0.609375 2.078125q0.625 0.71875 1.421875 0.71875q0.75 0 1.25 -0.59375q0.515625 -0.59375 0.515625 -1.953125q0 -1.40625 -0.546875 -2.046875q-0.546875 -0.65625 -1.359375 -0.65625q-0.796875 0 -1.34375 0.625q-0.546875 0.625 -0.546875 1.828125z" fill-rule="nonzero"/><path fill="#a4c2f4" d="m471.03378 72.27225l0 0c0 -16.612026 -13.325714 -30.07874 -29.763794 -30.07874l0 0c-7.8938293 0 -15.464355 3.1690025 -21.046173 8.80986c-5.581787 5.6408577 -8.71759 13.2915 -8.71759 21.268879l0 0c0 16.61203 13.325684 30.078743 29.763763 30.078743l0 0c16.43808 0 29.763794 -13.466713 29.763794 -30.078743z" fill-rule="evenodd"/><path stroke="#000000" stroke-width="8.0" stroke-linejoin="round" stroke-linecap="butt" d="m471.03378 72.27225l0 0c0 -16.612026 -13.325714 -30.07874 -29.763794 -30.07874l0 0c-7.8938293 0 -15.464355 3.1690025 -21.046173 8.80986c-5.581787 5.6408577 -8.71759 13.2915 -8.71759 21.268879l0 0c0 16.61203 13.325684 30.078743 29.763763 30.078743l0 0c16.43808 0 29.763794 -13.466713 29.763794 -30.078743z" fill-rule="evenodd"/><path fill="#000000" d="m436.5991 75.78475l2.734375 -0.28125q0.109375 0.9375 0.6875 1.484375q0.578125 0.53125 1.328125 0.53125q0.859375 0 1.453125 -0.6875q0.609375 -0.703125 0.609375 -2.109375q0 -1.328125 -0.59375 -1.984375q-0.59375 -0.65625 -1.546875 -0.65625q-1.171875 0 -2.109375 1.046875l-2.234375 -0.328125l1.40625 -7.453125l7.265625 0l0 2.578125l-5.1875 0l-0.421875 2.421875q0.921875 -0.453125 1.875 -0.453125q1.828125 0 3.09375 1.328125q1.265625 1.328125 1.265625 3.4375q0 1.78125 -1.015625 3.15625q-1.40625 1.90625 -3.890625 1.90625q-1.96875 0 -3.21875 -1.0625q-1.25 -1.078125 -1.5 -2.875z" fill-rule="nonzero"/><path fill="#6d9eeb" d="m395.4674 72.27225l0 0c0 -16.612026 -13.325714 -30.07874 -29.763794 -30.07874l0 0c-7.8938293 0 -15.464355 3.1690025 -21.046173 8.80986c-5.581787 5.6408577 -8.71759 13.2915 -8.71759 21.268879l0 0c0 16.61203 13.325684 30.078743 29.763763 30.078743l0 0c16.43808 0 29.763794 -13.466713 29.763794 -30.078743z" fill-rule="evenodd"/><path stroke="#000000" stroke-width="8.0" stroke-linejoin="round" stroke-linecap="butt" d="m395.4674 72.27225l0 0c0 -16.612026 -13.325714 -30.07874 -29.763794 -30.07874l0 0c-7.8938293 0 -15.464355 3.1690025 -21.046173 8.80986c-5.581787 5.6408577 -8.71759 13.2915 -8.71759 21.268879l0 0c0 16.61203 13.325684 30.078743 29.763763 30.078743l0 0c16.43808 0 29.763794 -13.466713 29.763794 -30.078743z" fill-rule="evenodd"/><path fill="#000000" d="m366.37646 79.47225l0 -2.875l-5.859375 0l0 -2.40625l6.203125 -9.09375l2.3125 0l0 9.078125l1.78125 0l0 2.421875l-1.78125 0l0 2.875l-2.65625 0zm0 -5.296875l0 -4.890625l-3.296875 4.890625l3.296875 0z" fill-rule="nonzero"/><path fill="#3c78d8" d="m319.9002 72.27225l0 0c0 -16.612026 -13.325714 -30.07874 -29.763794 -30.07874l0 0c-7.8938293 0 -15.464386 3.1690025 -21.046173 8.80986c-5.581787 5.6408577 -8.71759 13.2915 -8.71759 21.268879l0 0c0 16.61203 13.325684 30.078743 29.763763 30.078743l0 0c16.43808 0 29.763794 -13.466713 29.763794 -30.078743z" fill-rule="evenodd"/><path stroke="#000000" stroke-width="8.0" stroke-linejoin="round" stroke-linecap="butt" d="m319.9002 72.27225l0 0c0 -16.612026 -13.325714 -30.07874 -29.763794 -30.07874l0 0c-7.8938293 0 -15.464386 3.1690025 -21.046173 8.80986c-5.581787 5.6408577 -8.71759 13.2915 -8.71759 21.268879l0 0c0 16.61203 13.325684 30.078743 29.763763 30.078743l0 0c16.43808 0 29.763794 -13.466713 29.763794 -30.078743z" fill-rule="evenodd"/><path fill="#000000" d="m285.3249 75.67538l2.65625 -0.328125q0.125 1.015625 0.6875 1.5625q0.5625 0.53125 1.34375 0.53125q0.859375 0 1.4375 -0.640625q0.578125 -0.65625 0.578125 -1.75q0 -1.03125 -0.5625 -1.625q-0.546875 -0.609375 -1.359375 -0.609375q-0.515625 0 -1.25 0.203125l0.296875 -2.234375q1.109375 0.03125 1.6875 -0.484375q0.59375 -0.515625 0.59375 -1.359375q0 -0.734375 -0.4375 -1.15625q-0.421875 -0.4375 -1.125 -0.4375q-0.703125 0 -1.203125 0.5q-0.5 0.484375 -0.609375 1.421875l-2.53125 -0.4375q0.265625 -1.296875 0.796875 -2.0625q0.53125 -0.78125 1.484375 -1.21875q0.953125 -0.453125 2.140625 -0.453125q2.015625 0 3.234375 1.28125q1.015625 1.0625 1.015625 2.390625q0 1.890625 -2.0625 3.0q1.234375 0.265625 1.96875 1.1875q0.734375 0.921875 0.734375 2.21875q0 1.890625 -1.375 3.21875q-1.375 1.328125 -3.4375 1.328125q-1.9375 0 -3.21875 -1.125q-1.28125 -1.125 -1.484375 -2.921875z" fill-rule="nonzero"/><path fill="#76a5af" d="m244.33217 72.27086l0 0c0 -16.612034 -13.325699 -30.078743 -29.763779 -30.078743l0 0c-7.8938446 0 -15.464386 3.1690025 -21.046173 8.80986c-5.581787 5.6408577 -8.717606 13.291504 -8.717606 21.268883l0 0c0 16.61203 13.325699 30.078735 29.763779 30.078735l0 0c16.43808 0 29.763779 -13.466705 29.763779 -30.078735z" fill-rule="evenodd"/><path stroke="#000000" stroke-width="8.0" stroke-linejoin="round" stroke-linecap="butt" d="m244.33217 72.27086l0 0c0 -16.612034 -13.325699 -30.078743 -29.763779 -30.078743l0 0c-7.8938446 0 -15.464386 3.1690025 -21.046173 8.80986c-5.581787 5.6408577 -8.717606 13.291504 -8.717606 21.268883l0 0c0 16.61203 13.325699 30.078735 29.763779 30.078735l0 0c16.43808 0 29.763779 -13.466705 29.763779 -30.078735z" fill-rule="evenodd"/><path fill="#000000" d="m219.13187 76.92398l0 2.546875l-9.625 0q0.15625 -1.453125 0.9375 -2.734375q0.78125 -1.296875 3.078125 -3.4375q1.859375 -1.734375 2.28125 -2.34375q0.5625 -0.84375 0.5625 -1.6875q0 -0.90625 -0.5 -1.390625q-0.484375 -0.5 -1.34375 -0.5q-0.859375 0 -1.375 0.515625q-0.5 0.515625 -0.578125 1.71875l-2.734375 -0.28125q0.234375 -2.265625 1.515625 -3.25q1.296875 -0.984375 3.234375 -0.984375q2.125 0 3.328125 1.140625q1.21875 1.140625 1.21875 2.84375q0 0.96875 -0.359375 1.84375q-0.34375 0.875 -1.09375 1.828125q-0.5 0.640625 -1.796875 1.828125q-1.296875 1.1875 -1.640625 1.578125q-0.34375 0.390625 -0.5625 0.765625l5.453125 0z" fill-rule="nonzero"/><path fill="#45818e" d="m168.76552 72.27086l0 0c0 -16.612034 -13.325699 -30.078743 -29.763779 -30.078743l0 0c-7.89386 0 -15.464386 3.1690025 -21.04618 8.80986c-5.581787 5.6408577 -8.717606 13.291504 -8.717606 21.268883l0 0c0 16.61203 13.325699 30.078735 29.763786 30.078735l0 0c16.43808 0 29.763779 -13.466705 29.763779 -30.078735z" fill-rule="evenodd"/><path stroke="#000000" stroke-width="8.0" stroke-linejoin="round" stroke-linecap="butt" d="m168.76552 72.27086l0 0c0 -16.612034 -13.325699 -30.078743 -29.763779 -30.078743l0 0c-7.89386 0 -15.464386 3.1690025 -21.04618 8.80986c-5.581787 5.6408577 -8.717606 13.291504 -8.717606 21.268883l0 0c0 16.61203 13.325699 30.078735 29.763786 30.078735l0 0c16.43808 0 29.763779 -13.466705 29.763779 -30.078735z" fill-rule="evenodd"/><path fill="#000000" d="m141.3152 79.470856l-2.75 0l0 -10.34375q-1.5 1.40625 -3.546875 2.078125l0 -2.484375q1.078125 -0.359375 2.328125 -1.328125q1.265625 -0.984375 1.734375 -2.296875l2.234375 0l0 14.375z" fill-rule="nonzero"/></g></svg>