<svg version="1.1" viewBox="0.0 0.0 856.2650918635171 320.0" fill="none" stroke="none" stroke-linecap="square" stroke-miterlimit="10" xmlns:xlink="http://www.w3.org/1999/xlink" xmlns="http://www.w3.org/2000/svg"><clipPath id="p.0"><path d="m0 0l856.2651 0l0 320.0l-856.2651 0l0 -320.0z" clip-rule="nonzero"/></clipPath><g clip-path="url(#p.0)"><path fill="#000000" fill-opacity="0.0" d="m0 0l856.2651 0l0 320.0l-856.2651 0z" fill-rule="evenodd"/><path fill="#000000" fill-opacity="0.0" d="m402.6747 149.4867l-109.38583 77.480316" fill-rule="evenodd"/><path stroke="#000000" stroke-width="8.0" stroke-linejoin="round" stroke-linecap="butt" d="m402.6747 149.4867l-70.21643 49.735794" fill-rule="evenodd"/><path fill="#000000" stroke="#000000" stroke-width="8.0" stroke-linecap="butt" d="m324.82053 188.43959l-21.987976 31.767456l37.26349 -10.201675z" fill-rule="evenodd"/><path fill="#000000" fill-opacity="0.0" d="m405.1061 151.47095l108.346466 75.49606" fill-rule="evenodd"/><path stroke="#000000" stroke-width="8.0" stroke-linejoin="round" stroke-linecap="butt" d="m405.10614 151.47095l68.96423 48.05446" fill-rule="evenodd"/><path fill="#000000" stroke="#000000" stroke-width="8.0" stroke-linecap="butt" d="m466.51602 210.36687l37.341095 9.913986l-22.23236 -31.59694z" fill-rule="evenodd"/><path fill="#000000" fill-opacity="0.0" d="m600.785 58.99867l-157.48032 61.03937" fill-rule="evenodd"/><path stroke="#000000" stroke-width="8.0" stroke-linejoin="round" stroke-linecap="butt" d="m600.7849 58.99867l-112.72458 43.692074" fill-rule="evenodd"/><path fill="#000000" stroke="#000000" stroke-width="8.0" stroke-linecap="butt" d="m483.2848 90.37l-29.07544 25.44136l38.626465 -0.7998886z" fill-rule="evenodd"/><path fill="#45818e" d="m451.34778 148.9083l0 0c0 -26.509666 -21.490326 -48.0 -48.0 -48.0l0 0c-12.730408 0 -24.939392 5.057129 -33.94113 14.058876c-9.0017395 9.001747 -14.058868 21.210732 -14.058868 33.941124l0 0c0 26.509674 21.490326 48.0 48.0 48.0l0 0c26.509674 0 48.0 -21.490326 48.0 -48.0z" fill-rule="evenodd"/><path stroke="#000000" stroke-width="8.0" stroke-linejoin="round" stroke-linecap="butt" d="m451.34778 148.9083l0 0c0 -26.509666 -21.490326 -48.0 -48.0 -48.0l0 0c-12.730408 0 -24.939392 5.057129 -33.94113 14.058876c-9.0017395 9.001747 -14.058868 21.210732 -14.058868 33.941124l0 0c0 26.509674 21.490326 48.0 48.0 48.0l0 0c26.509674 0 48.0 -21.490326 48.0 -48.0z" fill-rule="evenodd"/><path fill="#000000" d="m401.6136 144.84392l0 -2.375l2.5625 0l0 2.375l-2.5625 0zm0 10.984375l0 -9.671875l2.5625 0l0 9.671875l-2.5625 0z" fill-rule="nonzero"/><path fill="#3c78d8" d="m307.34778 260.90814l0 0c0 -26.509674 -21.490356 -48.0 -48.0 -48.0l0 0c-12.730408 0 -24.939392 5.057129 -33.94113 14.058868c-9.001755 9.0017395 -14.058884 21.21074 -14.058884 33.94113l0 0c0 26.509674 21.490341 48.0 48.000015 48.0l0 0c26.509644 0 48.0 -21.490326 48.0 -48.0z" fill-rule="evenodd"/><path stroke="#000000" stroke-width="8.0" stroke-linejoin="round" stroke-linecap="butt" d="m307.34778 260.90814l0 0c0 -26.509674 -21.490356 -48.0 -48.0 -48.0l0 0c-12.730408 0 -24.939392 5.057129 -33.94113 14.058868c-9.001755 9.0017395 -14.058884 21.21074 -14.058884 33.94113l0 0c0 26.509674 21.490341 48.0 48.000015 48.0l0 0c26.509644 0 48.0 -21.490326 48.0 -48.0z" fill-rule="evenodd"/><path fill="#000000" d="m244.70085 265.45312l0 2.375l-8.96875 0q0.140625 -1.34375 0.859375 -2.546875q0.734375 -1.21875 2.890625 -3.203125q1.734375 -1.625 2.125 -2.1875q0.53125 -0.796875 0.53125 -1.578125q0 -0.84375 -0.46875 -1.296875q-0.453125 -0.46875 -1.265625 -0.46875q-0.796875 0 -1.28125 0.484375q-0.46875 0.46875 -0.546875 1.59375l-2.546875 -0.25q0.234375 -2.109375 1.421875 -3.0312347q1.203125 -0.921875 3.015625 -0.921875q1.96875 0 3.09375 1.0625q1.140625 1.0624847 1.140625 2.6562347q0 0.890625 -0.328125 1.71875q-0.3125 0.8125 -1.015625 1.703125q-0.46875 0.59375 -1.6875 1.703125q-1.203125 1.109375 -1.53125 1.484375q-0.3125 0.359375 -0.515625 0.703125l5.078125 0zm2.2819672 -8.609375l0 -2.3749847l2.5625 0l0 2.3749847l-2.5625 0zm0 10.984375l0 -9.671875l2.5625 0l0 9.671875l-2.5625 0zm13.288483 -1.921875l0 -3.46875l-3.484375 0l0 -2.390625l3.484375 0l0 -3.484375l2.34375 0l0 3.484375l3.5 0l0 2.390625l-3.5 0l0 3.46875l-2.34375 0zm19.156372 1.921875l-2.5625 0l0 -9.640625q-1.40625 1.3125 -3.3125 1.9375l0 -2.328125q1.015625 -0.328125 2.1875 -1.234375q1.171875 -0.92185974 1.609375 -2.1406097l2.078125 0l0 13.406235z" fill-rule="nonzero"/><path fill="#6d9eeb" d="m595.3937 260.90814l0 0c0 -26.509674 -21.490295 -48.0 -48.0 -48.0l0 0c-12.730347 0 -24.939331 5.057129 -33.9411 14.058868c-9.0017395 9.0017395 -14.058868 21.21074 -14.058868 33.94113l0 0c0 26.509674 21.490326 48.0 47.99997 48.0l0 0c26.509705 0 48.0 -21.490326 48.0 -48.0z" fill-rule="evenodd"/><path stroke="#000000" stroke-width="8.0" stroke-linejoin="round" stroke-linecap="butt" d="m595.3937 260.90814l0 0c0 -26.509674 -21.490295 -48.0 -48.0 -48.0l0 0c-12.730347 0 -24.939331 5.057129 -33.9411 14.058868c-9.0017395 9.0017395 -14.058868 21.21074 -14.058868 33.94113l0 0c0 26.509674 21.490326 48.0 47.99997 48.0l0 0c26.509705 0 48.0 -21.490326 48.0 -48.0z" fill-rule="evenodd"/><path fill="#000000" d="m533.0648 265.45312l0 2.375l-8.96875 0q0.140625 -1.34375 0.859375 -2.546875q0.734375 -1.21875 2.890625 -3.203125q1.734375 -1.625 2.125 -2.1875q0.53125 -0.796875 0.53125 -1.578125q0 -0.84375 -0.46875 -1.296875q-0.453125 -0.46875 -1.265625 -0.46875q-0.796875 0 -1.28125 0.484375q-0.46875 0.46875 -0.546875 1.59375l-2.546875 -0.25q0.234375 -2.109375 1.421875 -3.0312347q1.203125 -0.921875 3.015625 -0.921875q1.96875 0 3.09375 1.0625q1.140625 1.0624847 1.140625 2.6562347q0 0.890625 -0.328125 1.71875q-0.3125 0.8125 -1.015625 1.703125q-0.46875 0.59375 -1.6875 1.703125q-1.203125 1.109375 -1.53125 1.484375q-0.3125 0.359375 -0.515625 0.703125l5.078125 0zm2.2819824 -8.609375l0 -2.3749847l2.5625 0l0 2.3749847l-2.5625 0zm0 10.984375l0 -9.671875l2.5625 0l0 9.671875l-2.5625 0zm13.288513 -1.921875l0 -3.46875l-3.484375 0l0 -2.390625l3.484375 0l0 -3.484375l2.34375 0l0 3.484375l3.5 0l0 2.390625l-3.5 0l0 3.46875l-2.34375 0zm21.250122 -0.453125l0 2.375l-8.96875 0q0.140625 -1.34375 0.859375 -2.546875q0.734375 -1.21875 2.890625 -3.203125q1.734375 -1.625 2.125 -2.1875q0.53125 -0.796875 0.53125 -1.578125q0 -0.84375 -0.46875 -1.296875q-0.453125 -0.46875 -1.265625 -0.46875q-0.796875 0 -1.28125 0.484375q-0.46875 0.46875 -0.546875 1.59375l-2.546875 -0.25q0.234375 -2.109375 1.421875 -3.0312347q1.203125 -0.921875 3.015625 -0.921875q1.96875 0 3.09375 1.0625q1.140625 1.0624847 1.140625 2.6562347q0 0.890625 -0.328125 1.71875q-0.3125 0.8125 -1.015625 1.703125q-0.46875 0.59375 -1.6875 1.703125q-1.203125 1.109375 -1.53125 1.484375q-0.3125 0.359375 -0.515625 0.703125l5.078125 0z" fill-rule="nonzero"/><path fill="#93c47d" d="m644.9147 59.09186l0 0c0 -26.509666 -21.490295 -48.0 -48.0 -48.0l0 0c-12.730347 0 -24.939331 5.057129 -33.9411 14.058874c-9.00177 9.001747 -14.058899 21.210735 -14.058899 33.941124l0 0c0 26.50967 21.490356 48.000004 48.0 48.000004l0 0c26.509705 0 48.0 -21.490334 48.0 -48.000004z" fill-rule="evenodd"/><path stroke="#000000" stroke-width="8.0" stroke-linejoin="round" stroke-linecap="butt" d="m644.9147 59.09186l0 0c0 -26.509666 -21.490295 -48.0 -48.0 -48.0l0 0c-12.730347 0 -24.939331 5.057129 -33.9411 14.058874c-9.00177 9.001747 -14.058899 21.210735 -14.058899 33.941124l0 0c0 26.50967 21.490356 48.000004 48.0 48.000004l0 0c26.509705 0 48.0 -21.490334 48.0 -48.000004z" fill-rule="evenodd"/><path fill="#000000" d="m557.6117 66.01186l0 -14.343754l2.0625 0l0 12.28125l4.015625 0l0 2.0625038l-6.078125 0z" fill-rule="nonzero"/><path fill="#000000" d="m569.91284 69.93374l-1.75 0q-1.390625 -2.09375 -2.125 -4.359375q-0.734375 -2.2812538 -0.734375 -4.406254q0 -2.625 0.90625 -4.96875q0.78125 -2.046875 1.984375 -3.765625l1.75 0q-1.25 2.75 -1.71875 4.6875q-0.46875 1.9375 -0.46875 4.109375q0 1.5 0.28125 3.0625038q0.28125 1.5625 0.765625 2.96875q0.3125 0.9375 1.109375 2.671875zm1.9782715 -14.906254l0 -2.375l2.5625 0l0 2.375l-2.5625 0zm0 10.984379l0 -9.671879l2.5625 0l0 9.671879l-2.5625 0zm4.6207886 -5.390629l0 -2.390625l9.328125 0l0 2.390625l-9.328125 0zm17.457458 5.390629l-2.5625 0l0 -9.640629q-1.40625 1.3125 -3.3125 1.9375l0 -2.328125q1.015625 -0.328125 2.1875 -1.234375q1.171875 -0.921875 1.609375 -2.140625l2.078125 0l0 13.406254zm3.6569824 3.921875q0.765625 -1.609375 1.0625 -2.484375q0.3125 -0.859375 0.578125 -1.984375q0.265625 -1.140625 0.390625 -2.1562538q0.125 -1.015625 0.125 -2.078125q0 -2.171875 -0.46875 -4.109375q-0.453125 -1.9375 -1.703125 -4.6875l1.734375 0q1.375 1.953125 2.140625 4.15625q0.765625 2.1875 0.765625 4.453125q0 1.90625 -0.609375 4.078129q-0.671875 2.4375 -2.25 4.8125l-1.765625 0zm10.739746 -3.6875l3.3125 -13.812504l1.921875 0l-3.34375 13.812504l-1.890625 0zm19.835327 -2.6093788l0 2.3750038l-8.96875 0q0.140625 -1.34375 0.859375 -2.5468788q0.734375 -1.21875 2.890625 -3.203125q1.734375 -1.625 2.125 -2.1875q0.53125 -0.796875 0.53125 -1.578125q0 -0.84375 -0.46875 -1.296875q-0.453125 -0.46875 -1.265625 -0.46875q-0.796875 0 -1.28125 0.484375q-0.46875 0.46875 -0.546875 1.59375l-2.546875 -0.25q0.234375 -2.109375 1.421875 -3.03125q1.203125 -0.921875 3.015625 -0.921875q1.96875 0 3.09375 1.0625q1.140625 1.0625 1.140625 2.65625q0 0.890625 -0.328125 1.71875q-0.3125 0.8125 -1.015625 1.703125q-0.46875 0.59375 -1.6875 1.703125q-1.203125 1.109375 -1.53125 1.484375q-0.3125 0.359375 -0.515625 0.703125l5.078125 0z" fill-rule="nonzero"/><path fill="#000000" d="m636.5615 66.01186l-6.0625 0l0 -2.0625038l4.015625 0l0 -12.28125l2.046875 0l0 14.343754z" fill-rule="nonzero"/></g></svg>