<svg version="1.1" viewBox="0.0 0.0 1184.3700787401574 715.2362204724409" fill="none" stroke="none" stroke-linecap="square" stroke-miterlimit="10" xmlns:xlink="http://www.w3.org/1999/xlink" xmlns="http://www.w3.org/2000/svg"><clipPath id="p.0"><path d="m0 0l1184.3701 0l0 715.2362l-1184.3701 0l0 -715.2362z" clip-rule="nonzero"/></clipPath><g clip-path="url(#p.0)"><path fill="#000000" fill-opacity="0.0" d="m0 0l1184.3701 0l0 715.2362l-1184.3701 0z" fill-rule="evenodd"/><path fill="#000000" fill-opacity="0.0" d="m592.7951 63.137775l252.69293 105.25984" fill-rule="evenodd"/><path stroke="#000000" stroke-width="8.0" stroke-linejoin="round" stroke-linecap="butt" d="m592.7951 63.137775l208.38348 86.80261" fill-rule="evenodd"/><path fill="#000000" stroke="#000000" stroke-width="8.0" stroke-linecap="butt" d="m796.0975 162.13829l38.594543 1.7622223l-28.432434 -26.15802z" fill-rule="evenodd"/><path fill="#000000" fill-opacity="0.0" d="m592.802 61.972424l-255.43304 106.425186" fill-rule="evenodd"/><path stroke="#000000" stroke-width="8.0" stroke-linejoin="round" stroke-linecap="butt" d="m592.802 61.97242l-211.12503 87.96444" fill-rule="evenodd"/><path fill="#000000" stroke="#000000" stroke-width="8.0" stroke-linecap="butt" d="m376.5949 137.73935l-28.430298 26.160294l38.59439 -1.7652893z" fill-rule="evenodd"/><path fill="#b4a7d6" d="m1143.4304 490.33875l0 0c0 -26.509674 -21.490356 -48.0 -48.0 -48.0l0 0c-12.730347 0 -24.939331 5.057129 -33.94104 14.058868c-9.001831 9.0017395 -14.05896 21.210724 -14.05896 33.94113l0 0c0 26.509644 21.490356 48.0 48.0 48.0l0 0c26.509644 0 48.0 -21.490356 48.0 -48.0z" fill-rule="evenodd"/><path stroke="#000000" stroke-width="8.0" stroke-linejoin="round" stroke-linecap="butt" d="m1143.4304 490.33875l0 0c0 -26.509674 -21.490356 -48.0 -48.0 -48.0l0 0c-12.730347 0 -24.939331 5.057129 -33.94104 14.058868c-9.001831 9.0017395 -14.05896 21.210724 -14.05896 33.94113l0 0c0 26.509644 21.490356 48.0 48.0 48.0l0 0c26.509644 0 48.0 -21.490356 48.0 -48.0z" fill-rule="evenodd"/><path fill="#000000" d="m1089.3578 503.67874l-5.125 0l0 -19.296875q-2.796875 2.625 -6.609375 3.875l0 -4.640625q2.0 -0.65625 4.34375 -2.484375q2.359375 -1.84375 3.234375 -4.28125l4.15625 0l0 26.828125zm17.697632 0l0 -5.375l-10.9375 0l0 -4.484375l11.59375 -16.96875l4.3125 0l0 16.953125l3.3125 0l0 4.5l-3.3125 0l0 5.375l-4.96875 0zm0 -9.875l0 -9.140625l-6.140625 9.140625l6.140625 0z" fill-rule="nonzero"/><path fill="#b4a7d6" d="m999.42914 490.33875l0 0c0 -26.509674 -21.490356 -48.0 -48.0 -48.0l0 0c-12.730408 0 -24.939392 5.057129 -33.9411 14.058868c-9.00177 9.0017395 -14.058899 21.210724 -14.058899 33.94113l0 0c0 26.509644 21.490356 48.0 48.0 48.0l0 0c26.509644 0 48.0 -21.490356 48.0 -48.0z" fill-rule="evenodd"/><path stroke="#000000" stroke-width="8.0" stroke-linejoin="round" stroke-linecap="butt" d="m999.42914 490.33875l0 0c0 -26.509674 -21.490356 -48.0 -48.0 -48.0l0 0c-12.730408 0 -24.939392 5.057129 -33.9411 14.058868c-9.00177 9.0017395 -14.058899 21.210724 -14.058899 33.94113l0 0c0 26.509644 21.490356 48.0 48.0 48.0l0 0c26.509644 0 48.0 -21.490356 48.0 -48.0z" fill-rule="evenodd"/><path fill="#000000" d="m945.3565 503.67874l-5.125 0l0 -19.296875q-2.796875 2.625 -6.609375 3.875l0 -4.640625q2.0 -0.65625 4.34375 -2.484375q2.359375 -1.84375 3.234375 -4.28125l4.15625 0l0 26.828125zm7.478882 -7.09375l4.953125 -0.59375q0.234375 1.890625 1.265625 2.890625q1.046875 1.0 2.53125 1.0q1.578125 0 2.65625 -1.203125q1.09375 -1.203125 1.09375 -3.234375q0 -1.9375 -1.046875 -3.0625q-1.03125 -1.140625 -2.53125 -1.140625q-0.984375 0 -2.34375 0.390625l0.5625 -4.171875q2.078125 0.046875 3.171875 -0.90625q1.09375 -0.953125 1.09375 -2.546875q0 -1.34375 -0.8125 -2.140625q-0.796875 -0.8125 -2.125 -0.8125q-1.3125 0 -2.25 0.921875q-0.921875 0.90625 -1.125 2.65625l-4.71875 -0.796875q0.5 -2.421875 1.484375 -3.875q1.0 -1.453125 2.765625 -2.28125q1.78125 -0.828125 4.0 -0.828125q3.765625 0 6.046875 2.40625q1.875 1.96875 1.875 4.453125q0 3.515625 -3.84375 5.609375q2.296875 0.484375 3.671875 2.203125q1.375 1.71875 1.375 4.140625q0 3.515625 -2.578125 6.0q-2.5625 2.46875 -6.390625 2.46875q-3.625 0 -6.015625 -2.078125q-2.390625 -2.09375 -2.765625 -5.46875z" fill-rule="nonzero"/><path fill="#8e7cc3" d="m855.42914 490.33875l0 0c0 -26.509674 -21.490356 -48.0 -48.0 -48.0l0 0c-12.730408 0 -24.939392 5.057129 -33.9411 14.058868c-9.00177 9.0017395 -14.058899 21.210724 -14.058899 33.94113l0 0c0 26.509644 21.490356 48.0 48.0 48.0l0 0c26.509644 0 48.0 -21.490356 48.0 -48.0z" fill-rule="evenodd"/><path stroke="#000000" stroke-width="8.0" stroke-linejoin="round" stroke-linecap="butt" d="m855.42914 490.33875l0 0c0 -26.509674 -21.490356 -48.0 -48.0 -48.0l0 0c-12.730408 0 -24.939392 5.057129 -33.9411 14.058868c-9.00177 9.0017395 -14.058899 21.210724 -14.058899 33.94113l0 0c0 26.509644 21.490356 48.0 48.0 48.0l0 0c26.509644 0 48.0 -21.490356 48.0 -48.0z" fill-rule="evenodd"/><path fill="#000000" d="m801.3565 503.67874l-5.125 0l0 -19.296875q-2.796875 2.625 -6.609375 3.875l0 -4.640625q2.0 -0.65625 4.34375 -2.484375q2.359375 -1.84375 3.234375 -4.28125l4.15625 0l0 26.828125zm24.947632 -4.75l0 4.75l-17.953125 0q0.296875 -2.703125 1.75 -5.109375q1.46875 -2.421875 5.765625 -6.40625q3.46875 -3.234375 4.25 -4.375q1.0625 -1.59375 1.0625 -3.140625q0 -1.703125 -0.921875 -2.625q-0.921875 -0.921875 -2.546875 -0.921875q-1.609375 0 -2.5625 0.96875q-0.9375 0.953125 -1.078125 3.203125l-5.109375 -0.515625q0.453125 -4.21875 2.859375 -6.0625q2.40625 -1.84375 6.015625 -1.84375q3.953125 0 6.203125 2.140625q2.265625 2.125 2.265625 5.296875q0 1.796875 -0.640625 3.4375q-0.640625 1.625 -2.046875 3.40625q-0.9375 1.1875 -3.359375 3.421875q-2.421875 2.21875 -3.078125 2.953125q-0.640625 0.71875 -1.03125 1.421875l10.15625 0z" fill-rule="nonzero"/><path fill="#8e7cc3" d="m711.4278 490.33875l0 0c0 -26.509674 -21.490295 -48.0 -48.0 -48.0l0 0c-12.730347 0 -24.939331 5.057129 -33.9411 14.058868c-9.00177 9.0017395 -14.058899 21.210724 -14.058899 33.94113l0 0c0 26.509644 21.490356 48.0 48.0 48.0l0 0c26.509705 0 48.0 -21.490356 48.0 -48.0z" fill-rule="evenodd"/><path stroke="#000000" stroke-width="8.0" stroke-linejoin="round" stroke-linecap="butt" d="m711.4278 490.33875l0 0c0 -26.509674 -21.490295 -48.0 -48.0 -48.0l0 0c-12.730347 0 -24.939331 5.057129 -33.9411 14.058868c-9.00177 9.0017395 -14.058899 21.210724 -14.058899 33.94113l0 0c0 26.509644 21.490356 48.0 48.0 48.0l0 0c26.509705 0 48.0 -21.490356 48.0 -48.0z" fill-rule="evenodd"/><path fill="#000000" d="m658.38513 503.67874l-5.125 0l0 -19.296875q-2.796875 2.625 -6.609375 3.875l0 -4.640625q2.0 -0.65625 4.34375 -2.484375q2.359375 -1.84375 3.234375 -4.28125l4.15625 0l0 26.828125zm18.700256 0l-5.125 0l0 -19.296875q-2.796875 2.625 -6.609375 3.875l0 -4.640625q2.0 -0.65625 4.34375 -2.484375q2.359375 -1.84375 3.234375 -4.28125l4.15625 0l0 26.828125z" fill-rule="nonzero"/><path fill="#674ea7" d="m567.42914 490.33875l0 0c0 -26.509674 -21.490356 -48.0 -48.0 -48.0l0 0c-12.730408 0 -24.939392 5.057129 -33.94113 14.058868c-9.0017395 9.0017395 -14.058868 21.210724 -14.058868 33.94113l0 0c0 26.509644 21.490326 48.0 48.0 48.0l0 0c26.509644 0 48.0 -21.490356 48.0 -48.0z" fill-rule="evenodd"/><path stroke="#000000" stroke-width="8.0" stroke-linejoin="round" stroke-linecap="butt" d="m567.42914 490.33875l0 0c0 -26.509674 -21.490356 -48.0 -48.0 -48.0l0 0c-12.730408 0 -24.939392 5.057129 -33.94113 14.058868c-9.0017395 9.0017395 -14.058868 21.210724 -14.058868 33.94113l0 0c0 26.509644 21.490326 48.0 48.0 48.0l0 0c26.509644 0 48.0 -21.490356 48.0 -48.0z" fill-rule="evenodd"/><path fill="#000000" d="m513.3565 503.67874l-5.125 0l0 -19.296875q-2.796875 2.625 -6.609375 3.875l0 -4.640625q2.0 -0.65625 4.34375 -2.484375q2.359375 -1.84375 3.234375 -4.28125l4.15625 0l0 26.828125zm16.322632 -26.828125q3.875 0 6.0625 2.765625q2.609375 3.28125 2.609375 10.890625q0 7.578125 -2.625 10.890625q-2.171875 2.734375 -6.046875 2.734375q-3.90625 0 -6.296875 -3.0q-2.390625 -3.0 -2.390625 -10.6875q0 -7.546875 2.625 -10.859375q2.171875 -2.734375 6.0625 -2.734375zm0 4.25q-0.9375 0 -1.671875 0.59375q-0.71875 0.59375 -1.125 2.125q-0.53125 1.984375 -0.53125 6.6875q0 4.703125 0.46875 6.46875q0.484375 1.75 1.203125 2.328125q0.71875 0.578125 1.65625 0.578125q0.921875 0 1.640625 -0.578125q0.734375 -0.59375 1.140625 -2.125q0.53125 -1.96875 0.53125 -6.671875q0 -4.703125 -0.484375 -6.453125q-0.46875 -1.765625 -1.1875 -2.359375q-0.71875 -0.59375 -1.640625 -0.59375z" fill-rule="nonzero"/><path fill="#674ea7" d="m423.42783 490.33875l0 0c0 -26.509674 -21.490326 -48.0 -48.0 -48.0l0 0c-12.730408 0 -24.939392 5.057129 -33.94113 14.058868c-9.0017395 9.0017395 -14.058868 21.210724 -14.058868 33.94113l0 0c0 26.509644 21.490326 48.0 48.0 48.0l0 0c26.509674 0 48.0 -21.490356 48.0 -48.0z" fill-rule="evenodd"/><path stroke="#000000" stroke-width="8.0" stroke-linejoin="round" stroke-linecap="butt" d="m423.42783 490.33875l0 0c0 -26.509674 -21.490326 -48.0 -48.0 -48.0l0 0c-12.730408 0 -24.939392 5.057129 -33.94113 14.058868c-9.0017395 9.0017395 -14.058868 21.210724 -14.058868 33.94113l0 0c0 26.509644 21.490326 48.0 48.0 48.0l0 0c26.509674 0 48.0 -21.490356 48.0 -48.0z" fill-rule="evenodd"/><path fill="#000000" d="m366.73526 497.50687l4.96875 -0.546875q0.171875 1.5 0.9375 2.234375q0.765625 0.734375 2.03125 0.734375q1.578125 0 2.6875 -1.453125q1.125 -1.46875 1.4375 -6.0625q-1.9375 2.25 -4.84375 2.25q-3.140625 0 -5.4375 -2.4375q-2.28125 -2.4375 -2.28125 -6.34375q0 -4.0625 2.40625 -6.546875q2.421875 -2.484375 6.15625 -2.484375q4.0625 0 6.671875 3.140625q2.609375 3.140625 2.609375 10.34375q0 7.328125 -2.71875 10.578125q-2.71875 3.234375 -7.078125 3.234375q-3.125 0 -5.0625 -1.65625q-1.9375 -1.671875 -2.484375 -4.984375zm11.59375 -11.203125q0 -2.46875 -1.140625 -3.828125q-1.125 -1.375 -2.625 -1.375q-1.421875 0 -2.359375 1.125q-0.9375 1.109375 -0.9375 3.65625q0 2.59375 1.015625 3.8125q1.015625 1.203125 2.546875 1.203125q1.484375 0 2.484375 -1.15625q1.015625 -1.171875 1.015625 -3.4375z" fill-rule="nonzero"/><path fill="#351c75" d="m279.42783 490.33875l0 0c0 -26.509674 -21.490326 -48.0 -48.0 -48.0l0 0c-12.730392 0 -24.939377 5.057129 -33.94113 14.058868c-9.0017395 9.0017395 -14.058868 21.210724 -14.058868 33.94113l0 0c0 26.509644 21.490326 48.0 48.0 48.0l0 0c26.509674 0 48.0 -21.490356 48.0 -48.0z" fill-rule="evenodd"/><path stroke="#000000" stroke-width="8.0" stroke-linejoin="round" stroke-linecap="butt" d="m279.42783 490.33875l0 0c0 -26.509674 -21.490326 -48.0 -48.0 -48.0l0 0c-12.730392 0 -24.939377 5.057129 -33.94113 14.058868c-9.0017395 9.0017395 -14.058868 21.210724 -14.058868 33.94113l0 0c0 26.509644 21.490326 48.0 48.0 48.0l0 0c26.509674 0 48.0 -21.490356 48.0 -48.0z" fill-rule="evenodd"/><path fill="#000000" d="m227.03214 489.25687q-2.0 -0.828125 -2.90625 -2.296875q-0.890625 -1.46875 -0.890625 -3.21875q0 -2.984375 2.078125 -4.9375q2.09375 -1.953125 5.9375 -1.953125q3.8125 0 5.921875 1.953125q2.109375 1.953125 2.109375 4.9375q0 1.859375 -0.96875 3.3125q-0.96875 1.4375 -2.71875 2.203125q2.21875 0.890625 3.375 2.609375q1.15625 1.71875 1.15625 3.953125q0 3.703125 -2.359375 6.015625q-2.359375 2.3125 -6.28125 2.3125q-3.640625 0 -6.0625 -1.90625q-2.859375 -2.265625 -2.859375 -6.203125q0 -2.171875 1.0625 -3.984375q1.078125 -1.8125 3.40625 -2.796875zm1.046875 -5.15625q0 1.53125 0.859375 2.390625q0.875 0.859375 2.3125 0.859375q1.46875 0 2.34375 -0.859375q0.875 -0.875 0.875 -2.40625q0 -1.4375 -0.875 -2.296875q-0.859375 -0.875 -2.28125 -0.875q-1.484375 0 -2.359375 0.875q-0.875 0.875 -0.875 2.3125zm-0.46875 11.453125q0 2.109375 1.078125 3.296875q1.09375 1.1875 2.71875 1.1875q1.578125 0 2.609375 -1.140625q1.046875 -1.140625 1.046875 -3.296875q0 -1.875 -1.0625 -3.015625q-1.046875 -1.140625 -2.671875 -1.140625q-1.875 0 -2.796875 1.296875q-0.921875 1.296875 -0.921875 2.8125z" fill-rule="nonzero"/><path fill="#351c75" d="m135.42651 490.33875l0 0c0 -26.509674 -21.490334 -48.0 -48.0 -48.0l0 0c-12.730392 0 -24.93938 5.057129 -33.941128 14.058868c-9.001743 9.0017395 -14.058872 21.210724 -14.058872 33.94113l0 0c0 26.509644 21.49033 48.0 48.0 48.0l0 0c26.509666 0 48.0 -21.490356 48.0 -48.0z" fill-rule="evenodd"/><path stroke="#000000" stroke-width="8.0" stroke-linejoin="round" stroke-linecap="butt" d="m135.42651 490.33875l0 0c0 -26.509674 -21.490334 -48.0 -48.0 -48.0l0 0c-12.730392 0 -24.93938 5.057129 -33.941128 14.058868c-9.001743 9.0017395 -14.058872 21.210724 -14.058872 33.94113l0 0c0 26.509644 21.49033 48.0 48.0 48.0l0 0c26.509666 0 48.0 -21.490356 48.0 -48.0z" fill-rule="evenodd"/><path fill="#000000" d="m78.62457 482.085l0 -4.765625l17.515625 0l0 3.71875q-2.15625 2.140625 -4.40625 6.140625q-2.234375 3.984375 -3.421875 8.484375q-1.171875 4.484375 -1.15625 8.015625l-4.9375 0q0.125 -5.546875 2.28125 -11.296875q2.171875 -5.765625 5.78125 -10.296875l-11.65625 0z" fill-rule="nonzero"/><path fill="#c9daf8" d="m1071.4291 346.33875l0 0c0 -26.509674 -21.490234 -48.0 -47.99994 -48.0l0 0c-12.730408 0 -24.939392 5.057129 -33.9411 14.058868c-9.00177 9.0017395 -14.058899 21.210724 -14.058899 33.94113l0 0c0 26.509674 21.490356 48.0 48.0 48.0l0 0c26.509705 0 47.99994 -21.490326 47.99994 -48.0z" fill-rule="evenodd"/><path stroke="#000000" stroke-width="8.0" stroke-linejoin="round" stroke-linecap="butt" d="m1071.4291 346.33875l0 0c0 -26.509674 -21.490234 -48.0 -47.99994 -48.0l0 0c-12.730408 0 -24.939392 5.057129 -33.9411 14.058868c-9.00177 9.0017395 -14.058899 21.210724 -14.058899 33.94113l0 0c0 26.509674 21.490356 48.0 48.0 48.0l0 0c26.509705 0 47.99994 -21.490326 47.99994 -48.0z" fill-rule="evenodd"/><path fill="#000000" d="m1031.9866 339.50687l-4.953125 0.546875q-0.1875 -1.53125 -0.953125 -2.265625q-0.765625 -0.734375 -1.984375 -0.734375q-1.625 0 -2.75 1.46875q-1.109375 1.453125 -1.40625 6.0625q1.90625 -2.265625 4.75 -2.265625q3.21875 0 5.5 2.453125q2.28125 2.4375 2.28125 6.296875q0 4.109375 -2.40625 6.59375q-2.390625 2.46875 -6.171875 2.46875q-4.046875 0 -6.65625 -3.140625q-2.609375 -3.140625 -2.609375 -10.3125q0 -7.34375 2.71875 -10.578125q2.71875 -3.25 7.0625 -3.25q3.046875 0 5.03125 1.703125q2.0 1.703125 2.546875 4.953125zm-11.609375 11.171875q0 2.5 1.140625 3.859375q1.15625 1.34375 2.625 1.34375q1.421875 0 2.375 -1.109375q0.953125 -1.109375 0.953125 -3.640625q0 -2.609375 -1.03125 -3.8125q-1.015625 -1.21875 -2.546875 -1.21875q-1.46875 0 -2.5 1.15625q-1.015625 1.15625 -1.015625 3.421875z" fill-rule="nonzero"/><path fill="#a4c2f4" d="m783.4278 346.33875l0 0c0 -26.509674 -21.490295 -48.0 -48.0 -48.0l0 0c-12.730347 0 -24.939331 5.057129 -33.9411 14.058868c-9.00177 9.0017395 -14.058899 21.210724 -14.058899 33.94113l0 0c0 26.509674 21.490356 48.0 48.0 48.0l0 0c26.509705 0 48.0 -21.490326 48.0 -48.0z" fill-rule="evenodd"/><path stroke="#000000" stroke-width="8.0" stroke-linejoin="round" stroke-linecap="butt" d="m783.4278 346.33875l0 0c0 -26.509674 -21.490295 -48.0 -48.0 -48.0l0 0c-12.730347 0 -24.939331 5.057129 -33.9411 14.058868c-9.00177 9.0017395 -14.058899 21.210724 -14.058899 33.94113l0 0c0 26.509674 21.490356 48.0 48.0 48.0l0 0c26.509705 0 48.0 -21.490326 48.0 -48.0z" fill-rule="evenodd"/><path fill="#000000" d="m726.704 352.80374l5.109375 -0.53125q0.21875 1.734375 1.28125 2.75q1.078125 1.015625 2.484375 1.015625q1.609375 0 2.71875 -1.296875q1.109375 -1.3125 1.109375 -3.9375q0 -2.46875 -1.109375 -3.6875q-1.09375 -1.234375 -2.859375 -1.234375q-2.203125 0 -3.953125 1.953125l-4.15625 -0.609375l2.625 -13.90625l13.546875 0l0 4.796875l-9.671875 0l-0.796875 4.53125q1.71875 -0.84375 3.5 -0.84375q3.40625 0 5.765625 2.484375q2.375 2.46875 2.375 6.421875q0 3.296875 -1.90625 5.890625q-2.609375 3.53125 -7.234375 3.53125q-3.703125 0 -6.046875 -1.984375q-2.328125 -1.984375 -2.78125 -5.34375z" fill-rule="nonzero"/><path fill="#6d9eeb" d="m495.42783 346.33875l0 0c0 -26.509674 -21.490326 -48.0 -48.0 -48.0l0 0c-12.730408 0 -24.939392 5.057129 -33.94113 14.058868c-9.0017395 9.0017395 -14.058868 21.210724 -14.058868 33.94113l0 0c0 26.509674 21.490326 48.0 48.0 48.0l0 0c26.509674 0 48.0 -21.490326 48.0 -48.0z" fill-rule="evenodd"/><path stroke="#000000" stroke-width="8.0" stroke-linejoin="round" stroke-linecap="butt" d="m495.42783 346.33875l0 0c0 -26.509674 -21.490326 -48.0 -48.0 -48.0l0 0c-12.730408 0 -24.939392 5.057129 -33.94113 14.058868c-9.0017395 9.0017395 -14.058868 21.210724 -14.058868 33.94113l0 0c0 26.509674 21.490326 48.0 48.0 48.0l0 0c26.509674 0 48.0 -21.490326 48.0 -48.0z" fill-rule="evenodd"/><path fill="#000000" d="m448.67276 359.67874l0 -5.375l-10.9375 0l0 -4.484375l11.59375 -16.96875l4.3125 0l0 16.953125l3.3125 0l0 4.5l-3.3125 0l0 5.375l-4.96875 0zm0 -9.875l0 -9.140625l-6.140625 9.140625l6.140625 0z" fill-rule="nonzero"/><path fill="#3c78d8" d="m207.42651 346.33875l0 0c0 -26.509674 -21.490326 -48.0 -48.0 -48.0l0 0c-12.730392 0 -24.939377 5.057129 -33.941124 14.058868c-9.001747 9.0017395 -14.058876 21.210724 -14.058876 33.94113l0 0c0 26.509674 21.490326 48.0 48.0 48.0l0 0c26.509674 0 48.0 -21.490326 48.0 -48.0z" fill-rule="evenodd"/><path stroke="#000000" stroke-width="8.0" stroke-linejoin="round" stroke-linecap="butt" d="m207.42651 346.33875l0 0c0 -26.509674 -21.490326 -48.0 -48.0 -48.0l0 0c-12.730392 0 -24.939377 5.057129 -33.941124 14.058868c-9.001747 9.0017395 -14.058876 21.210724 -14.058876 33.94113l0 0c0 26.509674 21.490326 48.0 48.0 48.0l0 0c26.509674 0 48.0 -21.490326 48.0 -48.0z" fill-rule="evenodd"/><path fill="#000000" d="m150.4527 352.585l4.953125 -0.59375q0.234375 1.890625 1.265625 2.890625q1.046875 1.0 2.53125 1.0q1.578125 0 2.65625 -1.203125q1.09375 -1.203125 1.09375 -3.234375q0 -1.9375 -1.046875 -3.0625q-1.03125 -1.140625 -2.53125 -1.140625q-0.984375 0 -2.34375 0.390625l0.5625 -4.171875q2.078125 0.046875 3.171875 -0.90625q1.09375 -0.953125 1.09375 -2.546875q0 -1.34375 -0.8125 -2.140625q-0.796875 -0.8125 -2.125 -0.8125q-1.3125 0 -2.25 0.921875q-0.921875 0.90625 -1.125 2.65625l-4.71875 -0.796875q0.5 -2.421875 1.484375 -3.875q1.0 -1.453125 2.765625 -2.28125q1.78125 -0.828125 4.0 -0.828125q3.765625 0 6.046875 2.40625q1.875 1.96875 1.875 4.453125q0 3.515625 -3.84375 5.609375q2.296875 0.484375 3.671875 2.203125q1.375 1.71875 1.375 4.140625q0 3.515625 -2.578125 6.0q-2.5625 2.46875 -6.390625 2.46875q-3.625 0 -6.015625 -2.078125q-2.390625 -2.09375 -2.765625 -5.46875z" fill-rule="nonzero"/><path fill="#76a5af" d="m927.42914 202.33875l0 0c0 -26.509674 -21.490356 -48.0 -48.0 -48.0l0 0c-12.730408 0 -24.939392 5.057129 -33.9411 14.058868c-9.00177 9.001755 -14.058899 21.21074 -14.058899 33.94113l0 0c0 26.509674 21.490356 48.0 48.0 48.0l0 0c26.509644 0 48.0 -21.490326 48.0 -48.0z" fill-rule="evenodd"/><path stroke="#000000" stroke-width="8.0" stroke-linejoin="round" stroke-linecap="butt" d="m927.42914 202.33875l0 0c0 -26.509674 -21.490356 -48.0 -48.0 -48.0l0 0c-12.730408 0 -24.939392 5.057129 -33.9411 14.058868c-9.00177 9.001755 -14.058899 21.21074 -14.058899 33.94113l0 0c0 26.509674 21.490356 48.0 48.0 48.0l0 0c26.509644 0 48.0 -21.490326 48.0 -48.0z" fill-rule="evenodd"/><path fill="#000000" d="m887.9241 210.92874l0 4.75l-17.953125 0q0.296875 -2.703125 1.75 -5.109375q1.46875 -2.421875 5.765625 -6.40625q3.46875 -3.234375 4.25 -4.375q1.0625 -1.59375 1.0625 -3.140625q0 -1.703125 -0.921875 -2.625q-0.921875 -0.921875 -2.546875 -0.921875q-1.609375 0 -2.5625 0.96875q-0.9375 0.953125 -1.078125 3.203125l-5.109375 -0.515625q0.453125 -4.21875 2.859375 -6.0625q2.40625 -1.84375 6.015625 -1.84375q3.953125 0 6.203125 2.140625q2.265625 2.125 2.265625 5.296875q0 1.796875 -0.640625 3.4375q-0.640625 1.625 -2.046875 3.40625q-0.9375 1.1875 -3.359375 3.421875q-2.421875 2.21875 -3.078125 2.953125q-0.640625 0.71875 -1.03125 1.421875l10.15625 0z" fill-rule="nonzero"/><path fill="#45818e" d="m351.42783 202.33875l0 0c0 -26.509674 -21.490326 -48.0 -48.0 -48.0l0 0c-12.730408 0 -24.939392 5.057129 -33.94113 14.058868c-9.0017395 9.001755 -14.058868 21.21074 -14.058868 33.94113l0 0c0 26.509674 21.490326 48.0 48.0 48.0l0 0c26.509674 0 48.0 -21.490326 48.0 -48.0z" fill-rule="evenodd"/><path stroke="#000000" stroke-width="8.0" stroke-linejoin="round" stroke-linecap="butt" d="m351.42783 202.33875l0 0c0 -26.509674 -21.490326 -48.0 -48.0 -48.0l0 0c-12.730408 0 -24.939392 5.057129 -33.94113 14.058868c-9.0017395 9.001755 -14.058868 21.21074 -14.058868 33.94113l0 0c0 26.509674 21.490326 48.0 48.0 48.0l0 0c26.509674 0 48.0 -21.490326 48.0 -48.0z" fill-rule="evenodd"/><path fill="#000000" d="m307.73526 215.67874l-5.125 0l0 -19.296875q-2.796875 2.625 -6.609375 3.875l0 -4.640625q2.0 -0.65625 4.34375 -2.484375q2.359375 -1.84375 3.234375 -4.28125l4.15625 0l0 26.828125z" fill-rule="nonzero"/><path fill="#93c47d" d="m639.4278 58.338745l0 0c0 -26.509668 -21.490295 -48.0 -48.0 -48.0l0 0c-12.730347 0 -24.939331 5.057128 -33.9411 14.058875c-9.00177 9.001745 -14.058899 21.210733 -14.058899 33.941124l0 0c0 26.509666 21.490356 48.0 48.0 48.0l0 0c26.509705 0 48.0 -21.490334 48.0 -48.0z" fill-rule="evenodd"/><path stroke="#000000" stroke-width="8.0" stroke-linejoin="round" stroke-linecap="butt" d="m639.4278 58.338745l0 0c0 -26.509668 -21.490295 -48.0 -48.0 -48.0l0 0c-12.730347 0 -24.939331 5.057128 -33.9411 14.058875c-9.00177 9.001745 -14.058899 21.210733 -14.058899 33.941124l0 0c0 26.509666 21.490356 48.0 48.0 48.0l0 0c26.509705 0 48.0 -21.490334 48.0 -48.0z" fill-rule="evenodd"/><path fill="#000000" d="m591.2977 44.850613q3.875 0 6.0625 2.765625q2.609375 3.28125 2.609375 10.890625q0 7.578129 -2.625 10.890629q-2.171875 2.734375 -6.046875 2.734375q-3.90625 0 -6.296875 -3.0q-2.390625 -3.0 -2.390625 -10.687504q0 -7.546875 2.625 -10.859375q2.171875 -2.734375 6.0625 -2.734375zm0 4.25q-0.9375 0 -1.671875 0.59375q-0.71875 0.59375 -1.125 2.125q-0.53125 1.984375 -0.53125 6.6875q0 4.703125 0.46875 6.468754q0.484375 1.75 1.203125 2.328125q0.71875 0.578125 1.65625 0.578125q0.921875 0 1.640625 -0.578125q0.734375 -0.59375 1.140625 -2.125q0.53125 -1.9687538 0.53125 -6.671879q0 -4.703125 -0.484375 -6.453125q-0.46875 -1.765625 -1.1875 -2.359375q-0.71875 -0.59375 -1.640625 -0.59375z" fill-rule="nonzero"/><path fill="#000000" fill-opacity="0.0" d="m25.18504 594.69556l76.06299 0l0 100.346436l-76.06299 0z" fill-rule="evenodd"/><path stroke="#000000" stroke-width="3.0" stroke-linejoin="round" stroke-linecap="butt" d="m25.18504 594.69556l76.06299 0l0 100.346436l-76.06299 0z" fill-rule="evenodd"/><path fill="#000000" fill-opacity="0.0" d="m100.75197 594.69556l76.06299 0l0 100.346436l-76.06299 0z" fill-rule="evenodd"/><path stroke="#000000" stroke-width="3.0" stroke-linejoin="round" stroke-linecap="butt" d="m100.75197 594.69556l76.06299 0l0 100.346436l-76.06299 0z" fill-rule="evenodd"/><path fill="#000000" fill-opacity="0.0" d="m176.3189 594.69556l76.063 0l0 100.346436l-76.063 0z" fill-rule="evenodd"/><path stroke="#000000" stroke-width="3.0" stroke-linejoin="round" stroke-linecap="butt" d="m176.3189 594.69556l76.063 0l0 100.346436l-76.063 0z" fill-rule="evenodd"/><path fill="#000000" fill-opacity="0.0" d="m251.88583 594.69556l76.06299 0l0 100.346436l-76.06299 0z" fill-rule="evenodd"/><path stroke="#000000" stroke-width="3.0" stroke-linejoin="round" stroke-linecap="butt" d="m251.88583 594.69556l76.06299 0l0 100.346436l-76.06299 0z" fill-rule="evenodd"/><path fill="#000000" fill-opacity="0.0" d="m327.45276 594.69556l76.06299 0l0 100.346436l-76.06299 0z" fill-rule="evenodd"/><path stroke="#000000" stroke-width="3.0" stroke-linejoin="round" stroke-linecap="butt" d="m327.45276 594.69556l76.06299 0l0 100.346436l-76.06299 0z" fill-rule="evenodd"/><path fill="#000000" fill-opacity="0.0" d="m403.01968 594.69556l76.06299 0l0 100.346436l-76.06299 0z" fill-rule="evenodd"/><path stroke="#000000" stroke-width="3.0" stroke-linejoin="round" stroke-linecap="butt" d="m403.01968 594.69556l76.06299 0l0 100.346436l-76.06299 0z" fill-rule="evenodd"/><path fill="#000000" fill-opacity="0.0" d="m478.5866 594.69556l76.06299 0l0 100.346436l-76.06299 0z" fill-rule="evenodd"/><path stroke="#000000" stroke-width="3.0" stroke-linejoin="round" stroke-linecap="butt" d="m478.5866 594.69556l76.06299 0l0 100.346436l-76.06299 0z" fill-rule="evenodd"/><path fill="#000000" fill-opacity="0.0" d="m554.15356 594.69556l76.06299 0l0 100.346436l-76.06299 0z" fill-rule="evenodd"/><path stroke="#000000" stroke-width="3.0" stroke-linejoin="round" stroke-linecap="butt" d="m554.15356 594.69556l76.06299 0l0 100.346436l-76.06299 0z" fill-rule="evenodd"/><path fill="#000000" fill-opacity="0.0" d="m629.72046 594.69556l76.06299 0l0 100.346436l-76.06299 0z" fill-rule="evenodd"/><path stroke="#000000" stroke-width="3.0" stroke-linejoin="round" stroke-linecap="butt" d="m629.72046 594.69556l76.06299 0l0 100.346436l-76.06299 0z" fill-rule="evenodd"/><path fill="#000000" fill-opacity="0.0" d="m705.2874 594.69556l76.06299 0l0 100.346436l-76.06299 0z" fill-rule="evenodd"/><path stroke="#000000" stroke-width="3.0" stroke-linejoin="round" stroke-linecap="butt" d="m705.2874 594.69556l76.06299 0l0 100.346436l-76.06299 0z" fill-rule="evenodd"/><path fill="#000000" fill-opacity="0.0" d="m780.8543 594.69556l76.06299 0l0 100.346436l-76.06299 0z" fill-rule="evenodd"/><path stroke="#000000" stroke-width="3.0" stroke-linejoin="round" stroke-linecap="butt" d="m780.8543 594.69556l76.06299 0l0 100.346436l-76.06299 0z" fill-rule="evenodd"/><path fill="#000000" fill-opacity="0.0" d="m856.42126 594.69556l76.06299 0l0 100.346436l-76.06299 0z" fill-rule="evenodd"/><path stroke="#000000" stroke-width="3.0" stroke-linejoin="round" stroke-linecap="butt" d="m856.42126 594.69556l76.06299 0l0 100.346436l-76.06299 0z" fill-rule="evenodd"/><path fill="#000000" fill-opacity="0.0" d="m931.98816 594.69556l76.06305 0l0 100.346436l-76.06305 0z" fill-rule="evenodd"/><path stroke="#000000" stroke-width="3.0" stroke-linejoin="round" stroke-linecap="butt" d="m931.98816 594.69556l76.06305 0l0 100.346436l-76.06305 0z" fill-rule="evenodd"/><path fill="#000000" fill-opacity="0.0" d="m1007.5551 594.69556l76.06305 0l0 100.346436l-76.06305 0z" fill-rule="evenodd"/><path stroke="#000000" stroke-width="3.0" stroke-linejoin="round" stroke-linecap="butt" d="m1007.5551 594.69556l76.06305 0l0 100.346436l-76.06305 0z" fill-rule="evenodd"/><path fill="#000000" fill-opacity="0.0" d="m1083.1221 594.69556l76.06299 0l0 100.346436l-76.06299 0z" fill-rule="evenodd"/><path stroke="#000000" stroke-width="3.0" stroke-linejoin="round" stroke-linecap="butt" d="m1083.1221 594.69556l76.06299 0l0 100.346436l-76.06299 0z" fill-rule="evenodd"/><path fill="#93c47d" d="m93.198586 647.26636l0 0c0 -16.612 -13.325699 -30.078735 -29.763783 -30.078735l0 0c-7.8938446 0 -15.464378 3.1690063 -21.04617 8.8098755c-5.581791 5.640869 -8.717609 13.291504 -8.717609 21.26886l0 0c0 16.61206 13.325699 30.078735 29.763779 30.078735l0 0c16.438084 0 29.763783 -13.466675 29.763783 -30.078735z" fill-rule="evenodd"/><path stroke="#000000" stroke-width="8.0" stroke-linejoin="round" stroke-linecap="butt" d="m93.198586 647.26636l0 0c0 -16.612 -13.325699 -30.078735 -29.763783 -30.078735l0 0c-7.8938446 0 -15.464378 3.1690063 -21.04617 8.8098755c-5.581791 5.640869 -8.717609 13.291504 -8.717609 21.26886l0 0c0 16.61206 13.325699 30.078735 29.763779 30.078735l0 0c16.438084 0 29.763783 -13.466675 29.763783 -30.078735z" fill-rule="evenodd"/><path fill="#000000" d="m63.357655 640.0914q2.0781212 0 3.2499962 1.484375q1.40625 1.75 1.40625 5.828125q0 4.0625 -1.40625 5.84375q-1.171875 1.46875 -3.2499962 1.46875q-2.078125 0 -3.359375 -1.609375q-1.28125 -1.609375 -1.28125 -5.734375q0 -4.046875 1.40625 -5.8125q1.15625 -1.46875 3.234375 -1.46875zm0 2.28125q-0.5 0 -0.890625 0.3125q-0.390625 0.3125 -0.59375 1.140625q-0.28125 1.0625 -0.28125 3.578125q0 2.515625 0.25 3.46875q0.25 0.9375 0.625 1.25q0.390625 0.3125 0.890625 0.3125q0.5 0 0.8906212 -0.3125q0.390625 -0.328125 0.609375 -1.140625q0.28125 -1.0625 0.28125 -3.578125q0 -2.515625 -0.25 -3.453125q-0.25 -0.953125 -0.640625 -1.265625q-0.3906212 -0.3125 -0.8906212 -0.3125z" fill-rule="nonzero"/><path fill="#b4a7d6" d="m1151.135 647.2655l0 0c0 -16.612 -13.325684 -30.078735 -29.763794 -30.078735l0 0c-7.893799 0 -15.464355 3.1690063 -21.046143 8.8098755c-5.581787 5.640869 -8.717651 13.291504 -8.717651 21.26886l0 0c0 16.61206 13.325806 30.078735 29.763794 30.078735l0 0c16.43811 0 29.763794 -13.466675 29.763794 -30.078735z" fill-rule="evenodd"/><path stroke="#000000" stroke-width="8.0" stroke-linejoin="round" stroke-linecap="butt" d="m1151.135 647.2655l0 0c0 -16.612 -13.325684 -30.078735 -29.763794 -30.078735l0 0c-7.893799 0 -15.464355 3.1690063 -21.046143 8.8098755c-5.581787 5.640869 -8.717651 13.291504 -8.717651 21.26886l0 0c0 16.61206 13.325806 30.078735 29.763794 30.078735l0 0c16.43811 0 29.763794 -13.466675 29.763794 -30.078735z" fill-rule="evenodd"/><path fill="#000000" d="m1118.1232 654.4655l-2.75 0l0 -10.34375q-1.5 1.40625 -3.546875 2.078125l0 -2.484375q1.078125 -0.359375 2.328125 -1.328125q1.265625 -0.984375 1.734375 -2.296875l2.234375 0l0 14.375zm9.482422 0l0 -2.875l-5.859375 0l0 -2.40625l6.203125 -9.09375l2.3125 0l0 9.078125l1.78125 0l0 2.421875l-1.78125 0l0 2.875l-2.65625 0zm0 -5.296875l0 -4.890625l-3.296875 4.890625l3.296875 0z" fill-rule="nonzero"/><path fill="#b4a7d6" d="m1075.569 647.2655l0 0c0 -16.612 -13.325684 -30.078735 -29.763794 -30.078735l0 0c-7.893921 0 -15.464355 3.1690063 -21.046143 8.8098755c-5.581848 5.640869 -8.717651 13.291504 -8.717651 21.26886l0 0c0 16.61206 13.325684 30.078735 29.763794 30.078735l0 0c16.43811 0 29.763794 -13.466675 29.763794 -30.078735z" fill-rule="evenodd"/><path stroke="#000000" stroke-width="8.0" stroke-linejoin="round" stroke-linecap="butt" d="m1075.569 647.2655l0 0c0 -16.612 -13.325684 -30.078735 -29.763794 -30.078735l0 0c-7.893921 0 -15.464355 3.1690063 -21.046143 8.8098755c-5.581848 5.640869 -8.717651 13.291504 -8.717651 21.26886l0 0c0 16.61206 13.325684 30.078735 29.763794 30.078735l0 0c16.43811 0 29.763794 -13.466675 29.763794 -30.078735z" fill-rule="evenodd"/><path fill="#000000" d="m1042.5571 654.4655l-2.75 0l0 -10.34375q-1.5 1.40625 -3.546875 2.078125l0 -2.484375q1.078125 -0.359375 2.328125 -1.328125q1.265625 -0.984375 1.734375 -2.296875l2.234375 0l0 14.375zm3.9980469 -3.796875l2.65625 -0.328125q0.125 1.015625 0.6875 1.5625q0.5625 0.53125 1.34375 0.53125q0.859375 0 1.4375 -0.640625q0.578125 -0.65625 0.578125 -1.75q0 -1.03125 -0.5625 -1.625q-0.546875 -0.609375 -1.359375 -0.609375q-0.515625 0 -1.25 0.203125l0.296875 -2.234375q1.109375 0.03125 1.6875 -0.484375q0.59375 -0.515625 0.59375 -1.359375q0 -0.734375 -0.4375 -1.15625q-0.421875 -0.4375 -1.125 -0.4375q-0.703125 0 -1.203125 0.5q-0.5 0.484375 -0.609375 1.421875l-2.53125 -0.4375q0.265625 -1.296875 0.796875 -2.0625q0.53125 -0.78125 1.484375 -1.21875q0.953125 -0.453125 2.140625 -0.453125q2.015625 0 3.234375 1.28125q1.015625 1.0625 1.015625 2.390625q0 1.890625 -2.0625 3.0q1.234375 0.265625 1.96875 1.1875q0.734375 0.921875 0.734375 2.21875q0 1.890625 -1.375 3.21875q-1.375 1.328125 -3.4375 1.328125q-1.9375 0 -3.21875 -1.125q-1.28125 -1.125 -1.484375 -2.921875z" fill-rule="nonzero"/><path fill="#8e7cc3" d="m1000.0009 647.2655l0 0c0 -16.612 -13.325684 -30.078735 -29.763794 -30.078735l0 0c-7.89386 0 -15.464355 3.1690063 -21.046143 8.8098755c-5.581787 5.640869 -8.717651 13.291504 -8.717651 21.26886l0 0c0 16.61206 13.325745 30.078735 29.763794 30.078735l0 0c16.43811 0 29.763794 -13.466675 29.763794 -30.078735z" fill-rule="evenodd"/><path stroke="#000000" stroke-width="8.0" stroke-linejoin="round" stroke-linecap="butt" d="m1000.0009 647.2655l0 0c0 -16.612 -13.325684 -30.078735 -29.763794 -30.078735l0 0c-7.89386 0 -15.464355 3.1690063 -21.046143 8.8098755c-5.581787 5.640869 -8.717651 13.291504 -8.717651 21.26886l0 0c0 16.61206 13.325745 30.078735 29.763794 30.078735l0 0c16.43811 0 29.763794 -13.466675 29.763794 -30.078735z" fill-rule="evenodd"/><path fill="#000000" d="m966.9891 654.4655l-2.75 0l0 -10.34375q-1.5 1.40625 -3.546875 2.078125l0 -2.484375q1.078125 -0.359375 2.328125 -1.328125q1.265625 -0.984375 1.734375 -2.296875l2.234375 0l0 14.375zm13.373047 -2.546875l0 2.546875l-9.625 0q0.15625 -1.453125 0.9375 -2.734375q0.78125 -1.296875 3.078125 -3.4375q1.859375 -1.734375 2.28125 -2.34375q0.5625 -0.84375 0.5625 -1.6875q0 -0.90625 -0.5 -1.390625q-0.484375 -0.5 -1.34375 -0.5q-0.859375 0 -1.375 0.515625q-0.5 0.515625 -0.578125 1.71875l-2.734375 -0.28125q0.234375 -2.265625 1.515625 -3.25q1.296875 -0.984375 3.234375 -0.984375q2.125 0 3.328125 1.140625q1.21875 1.140625 1.21875 2.84375q0 0.96875 -0.359375 1.84375q-0.34375 0.875 -1.09375 1.828125q-0.5 0.640625 -1.796875 1.828125q-1.296875 1.1875 -1.640625 1.578125q-0.34375 0.390625 -0.5625 0.765625l5.453125 0z" fill-rule="nonzero"/><path fill="#8e7cc3" d="m924.4348 647.2655l0 0c0 -16.612 -13.325684 -30.078735 -29.763794 -30.078735l0 0c-7.89386 0 -15.464355 3.1690063 -21.046143 8.8098755c-5.581787 5.640869 -8.717651 13.291504 -8.717651 21.26886l0 0c0 16.61206 13.325745 30.078735 29.763794 30.078735l0 0c16.43811 0 29.763794 -13.466675 29.763794 -30.078735z" fill-rule="evenodd"/><path stroke="#000000" stroke-width="8.0" stroke-linejoin="round" stroke-linecap="butt" d="m924.4348 647.2655l0 0c0 -16.612 -13.325684 -30.078735 -29.763794 -30.078735l0 0c-7.89386 0 -15.464355 3.1690063 -21.046143 8.8098755c-5.581787 5.640869 -8.717651 13.291504 -8.717651 21.26886l0 0c0 16.61206 13.325745 30.078735 29.763794 30.078735l0 0c16.43811 0 29.763794 -13.466675 29.763794 -30.078735z" fill-rule="evenodd"/><path fill="#000000" d="m891.97473 654.4655l-2.75 0l0 -10.34375q-1.5 1.40625 -3.546875 2.078125l0 -2.484375q1.078125 -0.359375 2.328125 -1.328125q1.265625 -0.984375 1.734375 -2.296875l2.234375 0l0 14.375zm10.019531 0l-2.75 0l0 -10.34375q-1.5 1.40625 -3.546875 2.078125l0 -2.484375q1.078125 -0.359375 2.328125 -1.328125q1.265625 -0.984375 1.734375 -2.296875l2.234375 0l0 14.375z" fill-rule="nonzero"/><path fill="#674ea7" d="m848.8676 647.2655l0 0c0 -16.612 -13.325745 -30.078735 -29.763794 -30.078735l0 0c-7.89386 0 -15.464355 3.1690063 -21.046143 8.8098755c-5.581848 5.640869 -8.717651 13.291504 -8.717651 21.26886l0 0c0 16.61206 13.325684 30.078735 29.763794 30.078735l0 0c16.43805 0 29.763794 -13.466675 29.763794 -30.078735z" fill-rule="evenodd"/><path stroke="#000000" stroke-width="8.0" stroke-linejoin="round" stroke-linecap="butt" d="m848.8676 647.2655l0 0c0 -16.612 -13.325745 -30.078735 -29.763794 -30.078735l0 0c-7.89386 0 -15.464355 3.1690063 -21.046143 8.8098755c-5.581848 5.640869 -8.717651 13.291504 -8.717651 21.26886l0 0c0 16.61206 13.325684 30.078735 29.763794 30.078735l0 0c16.43805 0 29.763794 -13.466675 29.763794 -30.078735z" fill-rule="evenodd"/><path fill="#000000" d="m815.8558 654.4655l-2.75 0l0 -10.34375q-1.5 1.40625 -3.546875 2.078125l0 -2.484375q1.078125 -0.359375 2.328125 -1.328125q1.265625 -0.984375 1.734375 -2.296875l2.234375 0l0 14.375zm8.732422 -14.375q2.078125 0 3.25 1.484375q1.40625 1.75 1.40625 5.828125q0 4.0625 -1.40625 5.84375q-1.171875 1.46875 -3.25 1.46875q-2.078125 0 -3.359375 -1.609375q-1.28125 -1.609375 -1.28125 -5.734375q0 -4.046875 1.40625 -5.8125q1.15625 -1.46875 3.234375 -1.46875zm0 2.28125q-0.5 0 -0.890625 0.3125q-0.390625 0.3125 -0.59375 1.140625q-0.28125 1.0625 -0.28125 3.578125q0 2.515625 0.25 3.46875q0.25 0.9375 0.625 1.25q0.390625 0.3125 0.890625 0.3125q0.5 0 0.890625 -0.3125q0.390625 -0.328125 0.609375 -1.140625q0.28125 -1.0625 0.28125 -3.578125q0 -2.515625 -0.25 -3.453125q-0.25 -0.953125 -0.640625 -1.265625q-0.390625 -0.3125 -0.890625 -0.3125z" fill-rule="nonzero"/><path fill="#674ea7" d="m773.3015 647.2655l0 0c0 -16.612 -13.325745 -30.078735 -29.763794 -30.078735l0 0c-7.89386 0 -15.464355 3.1690063 -21.046204 8.8098755c-5.581787 5.640869 -8.71759 13.291504 -8.71759 21.26886l0 0c0 16.61206 13.325684 30.078735 29.763794 30.078735l0 0c16.43805 0 29.763794 -13.466675 29.763794 -30.078735z" fill-rule="evenodd"/><path stroke="#000000" stroke-width="8.0" stroke-linejoin="round" stroke-linecap="butt" d="m773.3015 647.2655l0 0c0 -16.612 -13.325745 -30.078735 -29.763794 -30.078735l0 0c-7.89386 0 -15.464355 3.1690063 -21.046204 8.8098755c-5.581787 5.640869 -8.71759 13.291504 -8.71759 21.26886l0 0c0 16.61206 13.325684 30.078735 29.763794 30.078735l0 0c16.43805 0 29.763794 -13.466675 29.763794 -30.078735z" fill-rule="evenodd"/><path fill="#000000" d="m738.88245 651.153l2.65625 -0.296875q0.09375 0.8125 0.5 1.203125q0.421875 0.390625 1.09375 0.390625q0.84375 0 1.4375 -0.78125q0.609375 -0.78125 0.765625 -3.234375q-1.03125 1.203125 -2.578125 1.203125q-1.6875 0 -2.921875 -1.296875q-1.21875 -1.3125 -1.21875 -3.40625q0 -2.171875 1.28125 -3.5q1.296875 -1.34375 3.296875 -1.34375q2.1875 0 3.578125 1.6875q1.40625 1.6875 1.40625 5.53125q0 3.9375 -1.46875 5.671875q-1.453125 1.734375 -3.78125 1.734375q-1.6875 0 -2.71875 -0.890625q-1.03125 -0.890625 -1.328125 -2.671875zm6.21875 -6.0q0 -1.328125 -0.609375 -2.046875q-0.609375 -0.734375 -1.421875 -0.734375q-0.75 0 -1.265625 0.59375q-0.5 0.59375 -0.5 1.96875q0 1.390625 0.546875 2.046875q0.546875 0.640625 1.375 0.640625q0.78125 0 1.328125 -0.625q0.546875 -0.625 0.546875 -1.84375z" fill-rule="nonzero"/><path fill="#351c75" d="m697.73346 647.2655l0 0c0 -16.612 -13.325684 -30.078735 -29.763794 -30.078735l0 0c-7.893799 0 -15.464355 3.1690063 -21.046143 8.8098755c-5.581787 5.640869 -8.71759 13.291504 -8.71759 21.26886l0 0c0 16.61206 13.325684 30.078735 29.763733 30.078735l0 0c16.43811 0 29.763794 -13.466675 29.763794 -30.078735z" fill-rule="evenodd"/><path stroke="#000000" stroke-width="8.0" stroke-linejoin="round" stroke-linecap="butt" d="m697.73346 647.2655l0 0c0 -16.612 -13.325684 -30.078735 -29.763794 -30.078735l0 0c-7.893799 0 -15.464355 3.1690063 -21.046143 8.8098755c-5.581787 5.640869 -8.71759 13.291504 -8.71759 21.26886l0 0c0 16.61206 13.325684 30.078735 29.763733 30.078735l0 0c16.43811 0 29.763794 -13.466675 29.763794 -30.078735z" fill-rule="evenodd"/><path fill="#000000" d="m665.61127 646.74677q-1.0625 -0.453125 -1.546875 -1.234375q-0.484375 -0.796875 -0.484375 -1.734375q0 -1.59375 1.109375 -2.640625q1.125 -1.046875 3.1875 -1.046875q2.046875 0 3.171875 1.046875q1.125 1.046875 1.125 2.640625q0 1.0 -0.515625 1.78125q-0.515625 0.765625 -1.453125 1.1875q1.1875 0.46875 1.796875 1.390625q0.625 0.921875 0.625 2.125q0 1.96875 -1.265625 3.21875q-1.25 1.234375 -3.359375 1.234375q-1.953125 0 -3.25 -1.015625q-1.53125 -1.21875 -1.53125 -3.328125q0 -1.15625 0.578125 -2.125q0.578125 -0.984375 1.8125 -1.5zm0.5625 -2.765625q0 0.8125 0.46875 1.28125q0.46875 0.453125 1.234375 0.453125q0.78125 0 1.25 -0.453125q0.46875 -0.46875 0.46875 -1.296875q0 -0.765625 -0.46875 -1.234375q-0.453125 -0.46875 -1.21875 -0.46875q-0.796875 0 -1.265625 0.46875q-0.46875 0.46875 -0.46875 1.25zm-0.25 6.125q0 1.140625 0.578125 1.78125q0.578125 0.625 1.453125 0.625q0.84375 0 1.40625 -0.609375q0.5625 -0.609375 0.5625 -1.765625q0 -1.0 -0.578125 -1.609375q-0.5625 -0.609375 -1.421875 -0.609375q-1.015625 0 -1.515625 0.6875q-0.484375 0.6875 -0.484375 1.5z" fill-rule="nonzero"/><path fill="#351c75" d="m622.16736 647.2655l0 0c0 -16.612 -13.325684 -30.078735 -29.763794 -30.078735l0 0c-7.893799 0 -15.464355 3.1690063 -21.046143 8.8098755c-5.581787 5.640869 -8.71759 13.291504 -8.71759 21.26886l0 0c0 16.61206 13.325684 30.078735 29.763733 30.078735l0 0c16.43811 0 29.763794 -13.466675 29.763794 -30.078735z" fill-rule="evenodd"/><path stroke="#000000" stroke-width="8.0" stroke-linejoin="round" stroke-linecap="butt" d="m622.16736 647.2655l0 0c0 -16.612 -13.325684 -30.078735 -29.763794 -30.078735l0 0c-7.893799 0 -15.464355 3.1690063 -21.046143 8.8098755c-5.581787 5.640869 -8.71759 13.291504 -8.71759 21.26886l0 0c0 16.61206 13.325684 30.078735 29.763733 30.078735l0 0c16.43811 0 29.763794 -13.466675 29.763794 -30.078735z" fill-rule="evenodd"/><path fill="#000000" d="m587.6858 642.8874l0 -2.546875l9.390625 0l0 2.0q-1.15625 1.140625 -2.359375 3.28125q-1.203125 2.140625 -1.84375 4.546875q-0.625 2.40625 -0.609375 4.296875l-2.640625 0q0.0625 -2.96875 1.21875 -6.046875q1.15625 -3.09375 3.09375 -5.53125l-6.25 0z" fill-rule="nonzero"/><path fill="#c9daf8" d="m546.601 647.267l0 0c0 -16.61206 -13.325745 -30.078796 -29.763794 -30.078796l0 0c-7.89386 0 -15.464386 3.1690063 -21.046173 8.8098755c-5.5818176 5.640869 -8.717621 13.291504 -8.717621 21.26892l0 0c0 16.612 13.325684 30.078735 29.763794 30.078735l0 0c16.43805 0 29.763794 -13.466736 29.763794 -30.078735z" fill-rule="evenodd"/><path stroke="#000000" stroke-width="8.0" stroke-linejoin="round" stroke-linecap="butt" d="m546.601 647.267l0 0c0 -16.61206 -13.325745 -30.078796 -29.763794 -30.078796l0 0c-7.89386 0 -15.464386 3.1690063 -21.046173 8.8098755c-5.5818176 5.640869 -8.717621 13.291504 -8.717621 21.26892l0 0c0 16.612 13.325684 30.078735 29.763794 30.078735l0 0c16.43805 0 29.763794 -13.466736 29.763794 -30.078735z" fill-rule="evenodd"/><path fill="#000000" d="m521.4163 643.6545l-2.65625 0.296875q-0.09375 -0.828125 -0.5 -1.21875q-0.40625 -0.390625 -1.0625 -0.390625q-0.875 0 -1.484375 0.78125q-0.59375 0.78125 -0.75 3.25q1.03125 -1.203125 2.546875 -1.203125q1.71875 0 2.9375 1.3125q1.234375 1.296875 1.234375 3.375q0 2.203125 -1.296875 3.53125q-1.28125 1.328125 -3.296875 1.328125q-2.171875 0 -3.578125 -1.6875q-1.390625 -1.6875 -1.390625 -5.53125q0 -3.9375 1.453125 -5.671875q1.46875 -1.734375 3.78125 -1.734375q1.640625 0 2.703125 0.921875q1.078125 0.90625 1.359375 2.640625zm-6.21875 5.984375q0 1.34375 0.609375 2.078125q0.625 0.71875 1.421875 0.71875q0.75 0 1.25 -0.59375q0.515625 -0.59375 0.515625 -1.953125q0 -1.40625 -0.546875 -2.046875q-0.546875 -0.65625 -1.359375 -0.65625q-0.796875 0 -1.34375 0.625q-0.546875 0.625 -0.546875 1.828125z" fill-rule="nonzero"/><path fill="#a4c2f4" d="m471.03378 647.267l0 0c0 -16.61206 -13.325714 -30.078796 -29.763794 -30.078796l0 0c-7.8938293 0 -15.464355 3.1690063 -21.046173 8.8098755c-5.581787 5.640869 -8.71759 13.291504 -8.71759 21.26892l0 0c0 16.612 13.325684 30.078735 29.763763 30.078735l0 0c16.43808 0 29.763794 -13.466736 29.763794 -30.078735z" fill-rule="evenodd"/><path stroke="#000000" stroke-width="8.0" stroke-linejoin="round" stroke-linecap="butt" d="m471.03378 647.267l0 0c0 -16.61206 -13.325714 -30.078796 -29.763794 -30.078796l0 0c-7.8938293 0 -15.464355 3.1690063 -21.046173 8.8098755c-5.581787 5.640869 -8.71759 13.291504 -8.71759 21.26892l0 0c0 16.612 13.325684 30.078735 29.763763 30.078735l0 0c16.43808 0 29.763794 -13.466736 29.763794 -30.078735z" fill-rule="evenodd"/><path fill="#000000" d="m436.5991 650.7795l2.734375 -0.28125q0.109375 0.9375 0.6875 1.484375q0.578125 0.53125 1.328125 0.53125q0.859375 0 1.453125 -0.6875q0.609375 -0.703125 0.609375 -2.109375q0 -1.328125 -0.59375 -1.984375q-0.59375 -0.65625 -1.546875 -0.65625q-1.171875 0 -2.109375 1.046875l-2.234375 -0.328125l1.40625 -7.453125l7.265625 0l0 2.578125l-5.1875 0l-0.421875 2.421875q0.921875 -0.453125 1.875 -0.453125q1.828125 0 3.09375 1.328125q1.265625 1.328125 1.265625 3.4375q0 1.78125 -1.015625 3.15625q-1.40625 1.90625 -3.890625 1.90625q-1.96875 0 -3.21875 -1.0625q-1.25 -1.078125 -1.5 -2.875z" fill-rule="nonzero"/><path fill="#6d9eeb" d="m395.4674 647.267l0 0c0 -16.61206 -13.325714 -30.078796 -29.763794 -30.078796l0 0c-7.8938293 0 -15.464355 3.1690063 -21.046173 8.8098755c-5.581787 5.640869 -8.71759 13.291504 -8.71759 21.26892l0 0c0 16.612 13.325684 30.078735 29.763763 30.078735l0 0c16.43808 0 29.763794 -13.466736 29.763794 -30.078735z" fill-rule="evenodd"/><path stroke="#000000" stroke-width="8.0" stroke-linejoin="round" stroke-linecap="butt" d="m395.4674 647.267l0 0c0 -16.61206 -13.325714 -30.078796 -29.763794 -30.078796l0 0c-7.8938293 0 -15.464355 3.1690063 -21.046173 8.8098755c-5.581787 5.640869 -8.71759 13.291504 -8.71759 21.26892l0 0c0 16.612 13.325684 30.078735 29.763763 30.078735l0 0c16.43808 0 29.763794 -13.466736 29.763794 -30.078735z" fill-rule="evenodd"/><path fill="#000000" d="m366.37646 654.467l0 -2.875l-5.859375 0l0 -2.40625l6.203125 -9.09375l2.3125 0l0 9.078125l1.78125 0l0 2.421875l-1.78125 0l0 2.875l-2.65625 0zm0 -5.296875l0 -4.890625l-3.296875 4.890625l3.296875 0z" fill-rule="nonzero"/><path fill="#3c78d8" d="m319.9002 647.267l0 0c0 -16.61206 -13.325714 -30.078796 -29.763794 -30.078796l0 0c-7.8938293 0 -15.464386 3.1690063 -21.046173 8.8098755c-5.581787 5.640869 -8.71759 13.291504 -8.71759 21.26892l0 0c0 16.612 13.325684 30.078735 29.763763 30.078735l0 0c16.43808 0 29.763794 -13.466736 29.763794 -30.078735z" fill-rule="evenodd"/><path stroke="#000000" stroke-width="8.0" stroke-linejoin="round" stroke-linecap="butt" d="m319.9002 647.267l0 0c0 -16.61206 -13.325714 -30.078796 -29.763794 -30.078796l0 0c-7.8938293 0 -15.464386 3.1690063 -21.046173 8.8098755c-5.581787 5.640869 -8.71759 13.291504 -8.71759 21.26892l0 0c0 16.612 13.325684 30.078735 29.763763 30.078735l0 0c16.43808 0 29.763794 -13.466736 29.763794 -30.078735z" fill-rule="evenodd"/><path fill="#000000" d="m285.3249 650.6701l2.65625 -0.328125q0.125 1.015625 0.6875 1.5625q0.5625 0.53125 1.34375 0.53125q0.859375 0 1.4375 -0.640625q0.578125 -0.65625 0.578125 -1.75q0 -1.03125 -0.5625 -1.625q-0.546875 -0.609375 -1.359375 -0.609375q-0.515625 0 -1.25 0.203125l0.296875 -2.234375q1.109375 0.03125 1.6875 -0.484375q0.59375 -0.515625 0.59375 -1.359375q0 -0.734375 -0.4375 -1.15625q-0.421875 -0.4375 -1.125 -0.4375q-0.703125 0 -1.203125 0.5q-0.5 0.484375 -0.609375 1.421875l-2.53125 -0.4375q0.265625 -1.296875 0.796875 -2.0625q0.53125 -0.78125 1.484375 -1.21875q0.953125 -0.453125 2.140625 -0.453125q2.015625 0 3.234375 1.28125q1.015625 1.0625 1.015625 2.390625q0 1.890625 -2.0625 3.0q1.234375 0.265625 1.96875 1.1875q0.734375 0.921875 0.734375 2.21875q0 1.890625 -1.375 3.21875q-1.375 1.328125 -3.4375 1.328125q-1.9375 0 -3.21875 -1.125q-1.28125 -1.125 -1.484375 -2.921875z" fill-rule="nonzero"/><path fill="#76a5af" d="m244.33217 647.2656l0 0c0 -16.61206 -13.325699 -30.078735 -29.763779 -30.078735l0 0c-7.8938446 0 -15.464386 3.1690063 -21.046173 8.809814c-5.581787 5.640869 -8.717606 13.291504 -8.717606 21.26892l0 0c0 16.612 13.325699 30.078735 29.763779 30.078735l0 0c16.43808 0 29.763779 -13.466736 29.763779 -30.078735z" fill-rule="evenodd"/><path stroke="#000000" stroke-width="8.0" stroke-linejoin="round" stroke-linecap="butt" d="m244.33217 647.2656l0 0c0 -16.61206 -13.325699 -30.078735 -29.763779 -30.078735l0 0c-7.8938446 0 -15.464386 3.1690063 -21.046173 8.809814c-5.581787 5.640869 -8.717606 13.291504 -8.717606 21.26892l0 0c0 16.612 13.325699 30.078735 29.763779 30.078735l0 0c16.43808 0 29.763779 -13.466736 29.763779 -30.078735z" fill-rule="evenodd"/><path fill="#000000" d="m219.13187 651.9187l0 2.546875l-9.625 0q0.15625 -1.453125 0.9375 -2.734375q0.78125 -1.296875 3.078125 -3.4375q1.859375 -1.734375 2.28125 -2.34375q0.5625 -0.84375 0.5625 -1.6875q0 -0.90625 -0.5 -1.390625q-0.484375 -0.5 -1.34375 -0.5q-0.859375 0 -1.375 0.515625q-0.5 0.515625 -0.578125 1.71875l-2.734375 -0.28125q0.234375 -2.265625 1.515625 -3.25q1.296875 -0.984375 3.234375 -0.984375q2.125 0 3.328125 1.140625q1.21875 1.140625 1.21875 2.84375q0 0.96875 -0.359375 1.84375q-0.34375 0.875 -1.09375 1.828125q-0.5 0.640625 -1.796875 1.828125q-1.296875 1.1875 -1.640625 1.578125q-0.34375 0.390625 -0.5625 0.765625l5.453125 0z" fill-rule="nonzero"/><path fill="#45818e" d="m168.76552 647.2656l0 0c0 -16.61206 -13.325699 -30.078735 -29.763779 -30.078735l0 0c-7.89386 0 -15.464386 3.1690063 -21.04618 8.809814c-5.581787 5.640869 -8.717606 13.291504 -8.717606 21.26892l0 0c0 16.612 13.325699 30.078735 29.763786 30.078735l0 0c16.43808 0 29.763779 -13.466736 29.763779 -30.078735z" fill-rule="evenodd"/><path stroke="#000000" stroke-width="8.0" stroke-linejoin="round" stroke-linecap="butt" d="m168.76552 647.2656l0 0c0 -16.61206 -13.325699 -30.078735 -29.763779 -30.078735l0 0c-7.89386 0 -15.464386 3.1690063 -21.04618 8.809814c-5.581787 5.640869 -8.717606 13.291504 -8.717606 21.26892l0 0c0 16.612 13.325699 30.078735 29.763786 30.078735l0 0c16.43808 0 29.763779 -13.466736 29.763779 -30.078735z" fill-rule="evenodd"/><path fill="#000000" d="m141.3152 654.4656l-2.75 0l0 -10.34375q-1.5 1.40625 -3.546875 2.078125l0 -2.484375q1.078125 -0.359375 2.328125 -1.328125q1.265625 -0.984375 1.734375 -2.296875l2.234375 0l0 14.375z" fill-rule="nonzero"/><path fill="#000000" fill-opacity="0.0" d="m269.4867 236.27988l-76.12598 76.12598" fill-rule="evenodd"/><path stroke="#000000" stroke-width="8.0" stroke-linejoin="round" stroke-linecap="butt" d="m269.4867 236.27988l-42.18486 42.184845" fill-rule="evenodd"/><path fill="#000000" stroke="#000000" stroke-width="8.0" stroke-linecap="butt" d="m217.95822 269.12112l-16.327744 35.014954l35.01497 -16.327728z" fill-rule="evenodd"/><path fill="#000000" fill-opacity="0.0" d="m125.48539 380.27988l-38.04725 62.04724" fill-rule="evenodd"/><path stroke="#000000" stroke-width="8.0" stroke-linejoin="round" stroke-linecap="butt" d="m125.48539 380.27985l-12.955505 21.127747" fill-rule="evenodd"/><path fill="#000000" stroke="#000000" stroke-width="8.0" stroke-linecap="butt" d="m101.26521 394.50015l-7.713455 37.856903l30.242805 -24.041962z" fill-rule="evenodd"/><path fill="#000000" fill-opacity="0.0" d="m193.36765 380.27988l38.04724 62.04724" fill-rule="evenodd"/><path stroke="#000000" stroke-width="8.0" stroke-linejoin="round" stroke-linecap="butt" d="m193.36765 380.27985l12.95549 21.127747" fill-rule="evenodd"/><path fill="#000000" stroke="#000000" stroke-width="8.0" stroke-linecap="butt" d="m195.05847 408.3151l30.242798 24.041962l-7.713455 -37.856903z" fill-rule="evenodd"/><path fill="#000000" fill-opacity="0.0" d="m413.4867 380.27988l-38.04724 62.04724" fill-rule="evenodd"/><path stroke="#000000" stroke-width="8.0" stroke-linejoin="round" stroke-linecap="butt" d="m413.48672 380.27985l-12.955505 21.127747" fill-rule="evenodd"/><path fill="#000000" stroke="#000000" stroke-width="8.0" stroke-linecap="butt" d="m389.26654 394.50015l-7.7134705 37.856903l30.242828 -24.041962z" fill-rule="evenodd"/><path fill="#000000" fill-opacity="0.0" d="m481.36896 380.27988l38.04724 62.04724" fill-rule="evenodd"/><path stroke="#000000" stroke-width="8.0" stroke-linejoin="round" stroke-linecap="butt" d="m481.36893 380.27985l12.955505 21.127747" fill-rule="evenodd"/><path fill="#000000" stroke="#000000" stroke-width="8.0" stroke-linecap="butt" d="m483.05975 408.3151l30.242798 24.041962l-7.71344 -37.856903z" fill-rule="evenodd"/><path fill="#000000" fill-opacity="0.0" d="m701.4867 380.27988l-38.04724 62.04724" fill-rule="evenodd"/><path stroke="#000000" stroke-width="8.0" stroke-linejoin="round" stroke-linecap="butt" d="m701.4867 380.27985l-12.955444 21.127747" fill-rule="evenodd"/><path fill="#000000" stroke="#000000" stroke-width="8.0" stroke-linecap="butt" d="m677.26654 394.50015l-7.71344 37.856903l30.242798 -24.041962z" fill-rule="evenodd"/><path fill="#000000" fill-opacity="0.0" d="m769.36896 380.27988l38.04724 62.04724" fill-rule="evenodd"/><path stroke="#000000" stroke-width="8.0" stroke-linejoin="round" stroke-linecap="butt" d="m769.36896 380.27985l12.955444 21.127747" fill-rule="evenodd"/><path fill="#000000" stroke="#000000" stroke-width="8.0" stroke-linecap="butt" d="m771.05975 408.3151l30.242798 24.041962l-7.71344 -37.856903z" fill-rule="evenodd"/><path fill="#000000" fill-opacity="0.0" d="m989.48804 380.27988l-38.04724 62.04724" fill-rule="evenodd"/><path stroke="#000000" stroke-width="8.0" stroke-linejoin="round" stroke-linecap="butt" d="m989.48804 380.27985l-12.955444 21.127747" fill-rule="evenodd"/><path fill="#000000" stroke="#000000" stroke-width="8.0" stroke-linecap="butt" d="m965.2678 394.50015l-7.71344 37.856903l30.242798 -24.041962z" fill-rule="evenodd"/><path fill="#000000" fill-opacity="0.0" d="m1057.3702 380.27988l38.04724 62.04724" fill-rule="evenodd"/><path stroke="#000000" stroke-width="8.0" stroke-linejoin="round" stroke-linecap="butt" d="m1057.3702 380.27985l12.955444 21.127747" fill-rule="evenodd"/><path fill="#000000" stroke="#000000" stroke-width="8.0" stroke-linecap="butt" d="m1059.061 408.3151l30.242798 24.041962l-7.713379 -37.856903z" fill-rule="evenodd"/><path fill="#000000" fill-opacity="0.0" d="m845.48804 236.27988l-76.12604 76.12598" fill-rule="evenodd"/><path stroke="#000000" stroke-width="8.0" stroke-linejoin="round" stroke-linecap="butt" d="m845.48804 236.27988l-42.184875 42.184845" fill-rule="evenodd"/><path fill="#000000" stroke="#000000" stroke-width="8.0" stroke-linecap="butt" d="m793.95953 269.12112l-16.327698 35.014954l35.014954 -16.327728z" fill-rule="evenodd"/><path fill="#000000" fill-opacity="0.0" d="m913.37024 236.27988l76.12604 76.12598" fill-rule="evenodd"/><path stroke="#000000" stroke-width="8.0" stroke-linejoin="round" stroke-linecap="butt" d="m913.37024 236.27988l42.184875 42.184845" fill-rule="evenodd"/><path fill="#000000" stroke="#000000" stroke-width="8.0" stroke-linecap="butt" d="m946.2115 287.80835l35.014954 16.327728l-16.327698 -35.014954z" fill-rule="evenodd"/><path fill="#000000" fill-opacity="0.0" d="m337.36896 236.27988l76.12598 76.12598" fill-rule="evenodd"/><path stroke="#000000" stroke-width="8.0" stroke-linejoin="round" stroke-linecap="butt" d="m337.36896 236.27988l42.184845 42.184845" fill-rule="evenodd"/><path fill="#000000" stroke="#000000" stroke-width="8.0" stroke-linecap="butt" d="m370.21017 287.80835l35.014984 16.327728l-16.327759 -35.014954z" fill-rule="evenodd"/></g></svg>