<svg version="1.1" viewBox="0.0 0.0 686.2755905511812 678.1049868766404" fill="none" stroke="none" stroke-linecap="square" stroke-miterlimit="10" xmlns:xlink="http://www.w3.org/1999/xlink" xmlns="http://www.w3.org/2000/svg"><clipPath id="p.0"><path d="m0 0l686.2756 0l0 678.105l-686.2756 0l0 -678.105z" clip-rule="nonzero"/></clipPath><g clip-path="url(#p.0)"><path fill="#000000" fill-opacity="0.0" d="m0 0l686.2756 0l0 678.105l-686.2756 0z" fill-rule="evenodd"/><path fill="#000000" fill-opacity="0.0" d="m115.608925 180.2336l9.826767 217.10237" fill-rule="evenodd"/><path stroke="#000000" stroke-width="24.0" stroke-linejoin="round" stroke-linecap="butt" d="m115.608925 180.2336l9.826767 217.10237" fill-rule="evenodd"/><path fill="#000000" fill-opacity="0.0" d="m400.17584 386.29922l158.2362 174.17319" fill-rule="evenodd"/><path stroke="#000000" stroke-width="24.0" stroke-linejoin="round" stroke-linecap="butt" d="m400.17584 386.29922l158.2362 174.17319" fill-rule="evenodd"/><path fill="#000000" fill-opacity="0.0" d="m522.83203 202.31233l-123.87402 159.46458" fill-rule="evenodd"/><path stroke="#000000" stroke-width="24.0" stroke-linejoin="round" stroke-linecap="butt" d="m522.83203 202.31233l-123.87402 159.46458" fill-rule="evenodd"/><path fill="#000000" fill-opacity="0.0" d="m210.66405 120.51181l263.1181 41.32283" fill-rule="evenodd"/><path stroke="#000000" stroke-width="24.0" stroke-linejoin="round" stroke-linecap="butt" d="m210.66405 120.51181l263.1181 41.32283" fill-rule="evenodd"/><path fill="#a608ff" d="m18.664042 120.51181l0 0c0 -53.019333 42.980667 -96.0 96.0 -96.0l0 0c25.460793 0 49.87876 10.114258 67.882256 28.117748c18.003494 18.00349 28.117752 42.421467 28.117752 67.88225l0 0c0 53.019333 -42.980667 96.0 -96.00001 96.0l0 0c-53.019333 0 -96.0 -42.980667 -96.0 -96.0z" fill-rule="evenodd"/><path stroke="#000000" stroke-width="24.0" stroke-linejoin="round" stroke-linecap="butt" d="m18.664042 120.51181l0 0c0 -53.019333 42.980667 -96.0 96.0 -96.0l0 0c25.460793 0 49.87876 10.114258 67.882256 28.117748c18.003494 18.00349 28.117752 42.421467 28.117752 67.88225l0 0c0 53.019333 -42.980667 96.0 -96.00001 96.0l0 0c-53.019333 0 -96.0 -42.980667 -96.0 -96.0z" fill-rule="evenodd"/><path fill="#ff00ff" d="m28.530184 446.83466l0 0c0 -53.01935 42.980667 -96.0 96.0 -96.0l0 0c25.460785 0 49.878754 10.114258 67.88225 28.117737c18.003494 18.00351 28.117752 42.42148 28.117752 67.88226l0 0c0 53.019318 -42.980667 96.0 -96.0 96.0l0 0c-53.019333 0 -96.0 -42.980682 -96.0 -96.0z" fill-rule="evenodd"/><path stroke="#000000" stroke-width="24.0" stroke-linejoin="round" stroke-linecap="butt" d="m28.530184 446.83466l0 0c0 -53.01935 42.980667 -96.0 96.0 -96.0l0 0c25.460785 0 49.878754 10.114258 67.88225 28.117737c18.003494 18.00351 28.117752 42.42148 28.117752 67.88226l0 0c0 53.019318 -42.980667 96.0 -96.0 96.0l0 0c-53.019333 0 -96.0 -42.980682 -96.0 -96.0z" fill-rule="evenodd"/><path fill="#00dac2" d="m292.29922 379.42783l0 0c0 -53.01935 42.98065 -96.0 96.0 -96.0l0 0c25.460785 0 49.878754 10.114258 67.88223 28.117737c18.00351 18.00351 28.117767 42.42148 28.117767 67.88226l0 0c0 53.019318 -42.980682 96.0 -96.0 96.0l0 0c-53.01935 0 -96.0 -42.980682 -96.0 -96.0z" fill-rule="evenodd"/><path stroke="#000000" stroke-width="24.0" stroke-linejoin="round" stroke-linecap="butt" d="m292.29922 379.42783l0 0c0 -53.01935 42.98065 -96.0 96.0 -96.0l0 0c25.460785 0 49.878754 10.114258 67.88223 28.117737c18.00351 18.00351 28.117767 42.42148 28.117767 67.88226l0 0c0 53.019318 -42.980682 96.0 -96.0 96.0l0 0c-53.01935 0 -96.0 -42.980682 -96.0 -96.0z" fill-rule="evenodd"/><path fill="#0000ff" d="m440.76904 177.0971l0 0c0 -53.019333 42.98065 -95.99999 96.0 -95.99999l0 0c25.460754 0 49.878723 10.114258 67.88226 28.117744c18.003479 18.003494 28.117737 42.42148 28.117737 67.88225l0 0c0 53.01935 -42.98065 96.0 -96.0 96.0l0 0c-53.01935 0 -96.0 -42.98065 -96.0 -96.0z" fill-rule="evenodd"/><path stroke="#000000" stroke-width="24.0" stroke-linejoin="round" stroke-linecap="butt" d="m440.76904 177.0971l0 0c0 -53.019333 42.98065 -95.99999 96.0 -95.99999l0 0c25.460754 0 49.878723 10.114258 67.88226 28.117744c18.003479 18.003494 28.117737 42.42148 28.117737 67.88225l0 0c0 53.01935 -42.98065 96.0 -96.0 96.0l0 0c-53.01935 0 -96.0 -42.98065 -96.0 -96.0z" fill-rule="evenodd"/><path fill="#ff4a4a" d="m469.03412 563.52496l0 0c0 -53.01938 42.98065 -96.00003 96.0 -96.00003l0 0c25.460815 0 49.878784 10.114258 67.88226 28.117737c18.003479 18.00351 28.117737 42.42148 28.117737 67.88229l0 0c0 53.019287 -42.98065 96.0 -96.0 96.0l0 0c-53.01935 0 -96.0 -42.980713 -96.0 -96.0z" fill-rule="evenodd"/><path stroke="#000000" stroke-width="24.0" stroke-linejoin="round" stroke-linecap="butt" d="m469.03412 563.52496l0 0c0 -53.01938 42.98065 -96.00003 96.0 -96.00003l0 0c25.460815 0 49.878784 10.114258 67.88226 28.117737c18.003479 18.00351 28.117737 42.42148 28.117737 67.88229l0 0c0 53.019287 -42.98065 96.0 -96.0 96.0l0 0c-53.01935 0 -96.0 -42.980713 -96.0 -96.0z" fill-rule="evenodd"/></g></svg>